<?xml version="1.0" encoding="UTF-8" standalone="no"?>
<!-- Created with Inkscape (http://www.inkscape.org/) -->

<svg
   xmlns:dc="http://purl.org/dc/elements/1.1/"
   xmlns:cc="http://creativecommons.org/ns#"
   xmlns:rdf="http://www.w3.org/1999/02/22-rdf-syntax-ns#"
   xmlns:svg="http://www.w3.org/2000/svg"
   xmlns="http://www.w3.org/2000/svg"
   xmlns:inkscape="http://www.inkscape.org/namespaces/inkscape"
   version="1.1"
   width="321.85001"
   height="258.28751"
   id="svg2"
   xml:space="preserve"><metadata
     id="metadata8"><rdf:RDF><cc:Work
         rdf:about=""><dc:format>image/svg+xml</dc:format><dc:type
           rdf:resource="http://purl.org/dc/dcmitype/StillImage" /></cc:Work></rdf:RDF></metadata><defs
     id="defs6" /><g
     transform="matrix(1.25,0,0,-1.25,0,258.2875)"
     id="g10"><g
       transform="scale(0.1,0.1)"
       id="g12"><path
         d="m 803.855,777.898 279.965,524.222 272.97,0 -135.2,-256.37 299.79,0 541.79,1020.56 -300.46,0 -275.38,-520.02 -272.17,0 137.13,258.16 -294.41,0 -546.259,-1026.552 292.234,0"
         inkscape:connector-curvature="0"
         id="path14"
         style="fill:#49444a;fill-opacity:1;fill-rule:nonzero;stroke:none" /><path
         d="m 721.648,1987.23 914.902,0 41.08,78.41 -1034.403,0 0,-877.55 190.457,354.76 -112.036,0 0,444.38 z m 1019.452,-687.12 112.03,0 0,-444.38 -914.9,0 -41.074,-78.41 1034.394,0 0,877.56 -190.45,-354.77"
         inkscape:connector-curvature="0"
         id="path16"
         style="fill:#a6d71c;fill-opacity:1;fill-rule:evenodd;stroke:none" /><path
         d="m 2477.33,282.301 86.25,137.23 -79.53,0 -55.45,-94.101 -56.58,94.101 -88.49,0 89.06,-137.23 -99.14,-151.219 82.34,0 64.96,107.52 64.42,-107.52 89.62,0 -97.46,151.219 z m -322.63,-3.93 c 0,-36.961 -11.78,-95.769 -66.1,-95.769 -48.18,0 -48.73,47.609 -48.73,82.898 l 0,154.031 -75.08,0 0,-182.031 c 0,-64.988 29.71,-113.16 98.03,-113.16 39.22,0 71.72,17.93 94.67,45.93 l 1.13,0 0,-39.188 71.12,0 0,288.449 -75.04,0 0,-141.16 z m -343.95,-147.289 75.06,0 0,420.066 -75.06,0 0,-420.066 z m -192.13,328.777 0,-40.328 -55.43,0 0,-54.902 55.43,0 0,-233.547 75.08,0 0,233.547 65.53,0 0,54.902 -65.53,0 0,35.848 c 0,22.391 7.83,44.25 33.05,44.25 16.23,0 25.76,-6.149 32.48,-10.078 l 6.15,62.168 c -14.55,3.351 -35.84,6.16 -54.88,6.16 -59.38,0 -91.88,-40.32 -91.88,-98.02"
         inkscape:connector-curvature="0"
         id="path18"
         style="fill:#a6d71c;fill-opacity:1;fill-rule:nonzero;stroke:none" /><path
         d="m 1511.26,419.551 c -44.8,0 -75.61,-45.371 -78.98,-72.262 l -1.12,0 0,65.52 -66.66,0 0,-288.469 75.08,0 0,105.879 c 0,41.453 0,117.621 61.05,117.621 13.44,0 26.88,-2.231 33.6,-6.149 l 0,75.61 c -7.83,2.25 -15.69,2.25 -22.97,2.25 z M 1104.6,296.871 c 3.36,38.649 24.65,67.777 66.66,67.777 42.01,0 58.81,-31.367 61.05,-67.777 l -127.71,0 z m 62.19,122.68 c -89.64,0 -133.89,-68.91 -133.89,-152.36 0,-94.671 55.47,-149.562 150.68,-149.562 40.34,0 71.68,7.84 99.14,22.961 l 0,61.058 c -28.01,-15.687 -59.37,-29.128 -95.78,-29.128 -46.5,0 -78.98,26.32 -82.34,72.82 l 199.41,0 c 0,100.808 -30.26,174.211 -137.22,174.211 z M 850.867,175.879 c -49.867,0 -66.105,52.66 -66.105,93.551 0,40.32 19.039,91.859 67.218,91.859 48.735,0 62.168,-53.207 62.168,-91.859 0,-39.77 -13.98,-93.551 -63.281,-93.551 z m 20.727,243.672 c -44.258,0 -72.84,-19.621 -89.645,-47.621 l -1.109,0 0,40.879 -71.703,0 0,-406.09025 75.062,0 0,150.67225 1.121,0 c 26.325,-31.922 52.66,-39.762 84.59,-39.762 90.18,0 122.656,72.812 122.656,151.801 0,79.539 -32.476,150.121 -120.972,150.121 z m -352.91,-217.352 -1.118,0 -69.453,210.61 -82.902,0 110.348,-303.02 c 0,-30.8202 -18.493,-51.5507 -48.735,-51.5507 -18.488,0 -29.129,1.6914 -38.656,5.0508 L 383.125,7.83984 C 400.492,2.78906 418.422,0 436.352,0 c 78.41,0 95.777,62.7305 119.859,126.59 l 108.113,286.219 -76.176,0 -69.464,-210.61 z m -283.418,155.172 -156.8441,0 0,157.949 -78.4219,0 0,-390.98 78.4219,0 0,171.41 156.8441,0 0,-171.41 78.422,0 0,390.98 -78.422,0 0,-157.949"
         inkscape:connector-curvature="0"
         id="path20"
         style="fill:#49444a;fill-opacity:1;fill-rule:nonzero;stroke:none" /></g></g></svg>