<?xml version="1.0" standalone="no"?>
<!DOCTYPE svg PUBLIC "-//W3C//DTD SVG 20010904//EN"
 "http://www.w3.org/TR/2001/REC-SVG-20010904/DTD/svg10.dtd">
<svg version="1.0" xmlns="http://www.w3.org/2000/svg"
 width="1920.000000pt" height="1080.000000pt" viewBox="0 0 1920.000000 1080.000000"
 preserveAspectRatio="xMidYMid meet">
<metadata>
Created by potrace 1.11, written by Peter Selinger 2001-2013
</metadata>
<g transform="translate(0.000000,1080.000000) scale(0.100000,-0.100000)"
fill="#000000" stroke="none">
<path d="M7182 10535 c-25 -31 -37 -111 -23 -147 6 -17 21 -30 38 -34 35 -9
43 -20 43 -62 0 -41 -28 -92 -51 -92 -25 0 -49 34 -49 70 0 48 -16 25 -25 -34
-6 -43 -5 -48 8 -38 11 10 17 9 27 -3 40 -48 110 28 110 120 0 50 -15 89 -31
80 -5 -4 -9 -1 -9 4 0 6 -5 11 -11 11 -17 0 -38 32 -39 58 0 34 29 72 56 72
28 0 33 -7 42 -62 l8 -43 10 63 c6 34 7 62 2 62 -4 0 -8 -7 -8 -15 0 -8 -4
-15 -9 -15 -5 0 -11 7 -15 15 -9 24 -52 18 -74 -10z"/>
<path d="M7838 10513 c-37 -82 -26 -277 18 -320 47 -47 94 45 94 182 0 116
-27 185 -72 185 -13 0 -26 -15 -40 -47z m69 -4 c16 -31 16 -222 0 -268 -7 -19
-18 -36 -24 -39 -24 -7 -37 52 -36 168 0 153 24 210 60 139z"/>
<path d="M7988 10513 c-25 -56 -29 -192 -9 -264 16 -58 50 -81 78 -54 28 28
43 92 43 181 0 163 -65 243 -112 137z m71 -4 c15 -42 13 -225 -2 -268 -16 -45
-34 -50 -49 -14 -14 36 -15 249 0 286 15 36 37 34 51 -4z"/>
<path d="M8177 10542 c-48 -53 -65 -243 -29 -312 27 -49 45 -58 70 -34 45 42
53 104 22 172 -16 35 -24 43 -42 40 -12 -2 -23 -8 -25 -15 -3 -7 3 -9 16 -6
26 7 41 -28 41 -92 0 -82 -38 -128 -60 -71 -15 40 -10 236 7 279 20 49 50 48
45 -1 -2 -24 1 -32 12 -32 10 0 16 9 16 26 0 58 -40 83 -73 46z"/>
<path d="M9630 10550 c0 -5 5 -10 11 -10 11 0 7 -76 -12 -220 -14 -107 -18
-120 -35 -120 -8 0 -13 -4 -9 -9 7 -12 85 -12 85 -1 0 4 -7 11 -16 14 -14 5
-15 16 -9 63 10 78 13 83 50 83 18 0 44 9 58 20 l25 20 -4 -23 c-2 -12 2 -6 9
12 21 53 27 24 17 -75 -5 -49 -10 -98 -10 -108 0 -38 11 -7 25 70 8 43 18 92
23 108 11 38 32 46 32 12 0 -14 5 -26 10 -26 6 0 10 14 10 30 0 37 -25 50 -45
24 -13 -18 -14 -18 -20 -2 -4 10 -11 15 -16 12 -5 -3 -9 15 -9 39 0 30 -7 53
-21 71 -18 23 -27 26 -85 26 -36 0 -64 -4 -64 -10z"/>
<path d="M8868 10416 c-50 -38 -69 -180 -30 -219 19 -18 24 -19 46 -7 32 16
56 77 56 138 0 79 -33 119 -72 88z"/>
<path d="M9956 10397 c-47 -62 -54 -162 -14 -201 17 -15 23 -16 42 -6 39 20
56 62 56 137 0 55 -4 73 -18 86 -26 24 -38 21 -66 -16z"/>
<path d="M11397 10423 c-2 -5 -7 -26 -10 -48 -6 -40 -6 -40 5 -7 6 17 15 32
21 32 5 0 7 -13 3 -32 -4 -18 -11 -82 -17 -143 -7 -74 -16 -116 -26 -127 -15
-17 -14 -18 15 -18 18 0 32 5 32 10 0 6 -4 10 -10 10 -8 0 -3 88 6 99 2 2 10
-2 19 -9 55 -46 114 172 61 225 -14 15 -18 15 -31 1 -16 -15 -45 -12 -45 5 0
11 -17 12 -23 2z"/>
<path d="M11684 10417 c-47 -55 -65 -142 -40 -201 17 -41 18 -42 50 -21 21 14
24 14 29 0 8 -19 23 -19 30 -1 4 10 1 13 -9 9 -18 -7 -18 25 1 127 7 41 12 75
12 75 -1 0 -12 6 -24 13 -28 15 -35 15 -49 -1z"/>
<path d="M2402 5528 l3 -4193 7440 0 7440 0 3 4193 2 4192 -7445 0 -7445 0 2
-4192z m2086 4137 c4 -41 38 -57 81 -39 25 11 31 19 31 44 l0 30 1005 0 1005
0 0 -22 c0 -13 7 -32 15 -42 8 -11 15 -30 15 -43 0 -15 6 -23 18 -23 15 -1 15
-2 -2 -15 -19 -14 -19 -37 -22 -642 -2 -346 -3 -644 -2 -663 2 -70 -2 -967 -6
-1445 -5 -516 0 -611 34 -645 11 -11 20 -29 20 -41 0 -11 5 -17 10 -14 6 3 10
1 10 -4 0 -6 7 -11 15 -11 8 0 18 -12 21 -27 16 -62 77 -58 88 5 8 55 -3 91
-35 108 -16 8 -29 23 -29 33 0 10 -9 25 -21 32 -21 14 -21 17 -19 494 1 264 2
1003 2 1643 1 1134 1 1163 -18 1177 -16 12 -16 14 -3 15 19 0 31 56 22 101
l-6 29 1009 -2 1009 -3 3 -32 c3 -33 18 -42 59 -35 16 3 23 12 25 36 l3 31
1038 3 1037 2 0 -31 c0 -24 4 -30 15 -25 8 3 15 0 15 -6 0 -6 6 -5 17 3 9 8
19 12 22 9 3 -3 7 7 9 23 l3 27 1008 0 1008 0 -4 -212 c-10 -591 -4 -1455 13
-1698 3 -47 6 -94 6 -105 1 -11 5 -54 10 -95 5 -41 11 -98 12 -127 2 -28 7
-57 12 -64 4 -7 9 -37 11 -68 2 -31 5 -72 7 -91 12 -108 18 -157 23 -170 4 -8
8 -37 10 -65 2 -27 5 -63 7 -80 1 -16 3 -42 4 -57 1 -16 8 -28 15 -28 9 0 13
-14 13 -47 -1 -27 3 -57 7 -68 10 -22 20 -112 26 -217 0 -16 7 -28 14 -28 9 0
13 -18 13 -56 1 -31 5 -59 10 -63 5 -3 9 -30 10 -60 0 -33 5 -56 12 -59 8 -2
12 -28 12 -68 0 -44 4 -66 13 -70 8 -3 13 -23 13 -54 0 -37 5 -53 19 -63 10
-8 15 -19 11 -26 -10 -15 4 -102 15 -95 5 3 9 -24 9 -60 0 -56 3 -67 21 -76
12 -7 18 -17 15 -27 -10 -26 5 -93 22 -93 11 0 13 -7 8 -31 -7 -38 3 -111 15
-103 10 6 10 8 14 -60 2 -34 8 -54 21 -63 10 -7 18 -25 19 -41 3 -68 6 -83 15
-77 6 4 10 -18 10 -59 0 -56 3 -67 21 -76 12 -7 18 -17 15 -27 -9 -23 5 -93
19 -93 8 0 14 -22 18 -57 3 -31 11 -60 18 -64 7 -4 14 -31 15 -60 1 -28 7 -55
12 -58 5 -3 13 -25 17 -48 4 -24 11 -45 16 -49 5 -3 9 -19 9 -35 0 -16 6 -32
14 -35 8 -3 17 -23 21 -44 4 -21 13 -44 21 -51 8 -6 14 -20 14 -30 0 -10 5
-21 10 -24 6 -3 10 -17 10 -29 0 -13 7 -29 15 -36 8 -7 15 -21 15 -31 0 -11 4
-27 9 -37 24 -47 30 -67 48 -155 3 -15 9 -27 13 -27 4 0 11 -20 14 -45 4 -25
11 -45 16 -45 4 0 11 -18 15 -40 4 -22 10 -38 15 -35 4 3 11 -15 14 -40 4 -24
11 -47 16 -50 5 -3 12 -25 16 -50 3 -24 11 -43 17 -42 5 1 15 -17 21 -40 6
-23 18 -48 27 -55 9 -7 20 -31 24 -53 4 -21 15 -45 25 -52 10 -7 21 -29 25
-50 4 -20 14 -43 23 -49 10 -8 17 -28 18 -51 3 -96 4 -101 24 -106 11 -3 23
-1 26 4 3 5 10 7 15 4 5 -4 14 6 19 21 8 21 14 24 22 16 7 -7 13 -22 13 -35 4
-67 6 -77 19 -77 8 0 17 -6 19 -12 4 -10 8 -10 15 1 8 11 16 12 32 5 17 -8 22
-20 25 -57 3 -53 29 -84 52 -65 7 6 21 7 30 3 10 -5 22 -7 27 -6 5 1 6 -5 2
-14 -3 -9 -3 -33 0 -53 7 -42 39 -66 66 -48 18 11 52 -9 42 -26 -3 -5 -3 -26
1 -46 7 -43 42 -74 56 -50 15 23 44 -5 45 -43 1 -69 4 -90 14 -84 6 3 10 1 10
-5 0 -8 9 -10 24 -6 31 8 37 -3 41 -65 2 -53 28 -87 51 -68 13 11 28 -16 18
-32 -8 -14 7 -100 17 -93 5 3 9 0 9 -5 0 -6 7 -11 16 -11 13 0 15 -7 11 -36
-9 -52 2 -90 28 -104 20 -11 23 -20 22 -73 0 -48 4 -63 19 -74 14 -10 19 -27
19 -69 1 -42 6 -59 18 -66 13 -7 17 -23 17 -73 0 -49 4 -66 17 -73 12 -7 15
-18 10 -46 -10 -60 2 -104 29 -110 23 -6 34 -26 15 -26 -13 0 -22 -57 -15
-101 4 -21 10 -36 15 -33 5 3 9 -29 9 -70 0 -61 3 -76 15 -76 8 0 15 -4 15
-10 0 -5 -4 -10 -9 -10 -5 0 -11 -12 -13 -28 l-3 -27 -1023 -3 -1022 -2 2 72
c2 40 7 76 12 79 4 4 10 62 12 130 2 68 6 149 10 179 7 58 8 304 1 380 -2 25
-5 55 -6 68 0 12 -8 22 -16 22 -14 0 -35 56 -35 93 0 10 -4 16 -9 13 -14 -9
-30 17 -37 62 -4 26 -12 42 -20 42 -8 0 -14 5 -14 11 0 6 -7 9 -15 5 -11 -4
-16 4 -21 32 -6 41 -43 69 -63 49 -11 -11 -31 29 -31 64 0 10 -6 19 -14 19 -8
0 -16 6 -19 13 -3 9 -7 9 -20 -2 -15 -11 -18 -10 -27 14 -5 14 -10 35 -10 46
0 10 -6 19 -14 19 -8 0 -17 6 -20 13 -5 9 -7 9 -12 0 -11 -25 -23 -12 -30 32
-4 28 -11 45 -20 45 -8 0 -14 5 -14 11 0 5 -4 7 -10 4 -5 -3 -12 11 -16 33 -4
26 -13 41 -27 48 -12 5 -27 25 -34 44 -7 19 -12 31 -12 26 -2 -20 -30 30 -31
52 0 12 -6 22 -14 22 -9 0 -17 15 -21 40 -4 22 -11 38 -16 35 -4 -3 -11 6 -15
21 -4 15 -13 39 -20 53 -8 14 -14 34 -14 43 0 9 -4 20 -10 23 -5 3 -10 14 -10
24 0 10 -7 24 -15 31 -8 7 -15 21 -15 32 0 11 -7 26 -15 34 -8 9 -15 24 -15
34 0 10 -4 21 -9 25 -6 3 -13 26 -17 50 -3 25 -10 48 -15 51 -5 3 -9 14 -9 25
0 10 -4 19 -10 19 -5 0 -10 7 -10 15 0 8 -4 23 -9 33 -4 9 -21 58 -37 107 -15
50 -34 101 -41 115 -7 14 -13 31 -13 39 0 8 -8 19 -17 26 -9 7 -18 23 -18 36
-3 68 -6 79 -19 79 -9 0 -16 18 -21 55 -3 30 -10 53 -15 50 -4 -3 -11 19 -14
48 -5 40 -12 55 -28 62 -16 8 -21 21 -23 58 -2 28 -9 53 -18 60 -8 7 -18 30
-22 52 -4 21 -15 45 -26 53 -11 7 -17 18 -14 23 9 13 -6 100 -16 94 -8 -6 -29
56 -29 86 0 9 -8 19 -18 21 -14 4 -20 18 -25 58 -4 33 -13 57 -24 65 -9 7 -18
23 -18 36 -3 67 -6 79 -19 79 -9 0 -15 18 -19 57 -4 34 -12 60 -20 65 -8 4
-18 28 -21 52 -4 24 -13 47 -21 50 -9 3 -15 18 -15 34 0 44 -11 92 -20 87 -4
-3 -11 20 -15 50 -4 35 -11 55 -20 55 -8 0 -15 20 -20 55 -3 30 -10 53 -15 50
-4 -3 -11 20 -15 50 -4 35 -11 55 -20 55 -8 0 -15 20 -20 55 -3 30 -11 53 -16
50 -5 -4 -9 16 -9 45 0 35 -4 52 -15 56 -8 3 -17 26 -21 50 -4 27 -11 44 -20
44 -8 0 -11 6 -8 15 6 15 -21 148 -35 175 -5 9 -12 31 -16 50 -4 19 -11 40
-15 45 -5 6 -13 39 -20 75 -7 36 -18 79 -25 95 -8 17 -18 59 -24 93 -5 34 -12
66 -15 71 -3 5 -17 65 -31 132 -13 68 -36 178 -50 244 -15 66 -28 141 -30 166
-1 26 -6 56 -9 67 -5 16 -2 19 19 17 14 -2 28 1 31 6 7 13 7 119 -1 127 -3 3
-24 6 -45 5 -33 -2 -40 1 -40 17 0 10 -4 21 -10 25 -5 3 -7 12 -4 20 4 8 1 36
-5 62 -6 27 -13 90 -15 141 -3 51 -9 98 -13 105 -4 7 -8 33 -9 58 0 25 -4 51
-8 58 -5 7 -9 33 -11 58 -2 25 -7 48 -12 52 -5 3 -9 24 -9 46 0 22 -4 86 -8
143 -7 98 -6 104 12 109 22 5 30 45 22 103 -4 30 -9 35 -32 34 -32 0 -30 -6
-34 121 -1 50 -5 146 -9 215 -3 69 -7 191 -8 272 -3 133 -5 149 -22 163 -24
17 -35 19 -35 5 0 -5 -6 -10 -14 -10 -24 0 -27 -98 -11 -410 3 -69 8 -170 10
-225 9 -191 12 -222 19 -234 8 -12 11 -48 20 -234 3 -54 9 -103 13 -110 4 -7
8 -33 9 -58 0 -25 4 -51 8 -58 5 -7 9 -33 11 -58 2 -25 9 -49 15 -53 7 -5 10
-15 7 -24 -4 -10 -2 -58 4 -109 6 -51 12 -116 14 -146 2 -30 8 -57 12 -60 4
-3 9 -28 10 -56 1 -27 7 -51 12 -53 5 -2 7 -11 4 -21 -2 -10 5 -57 16 -105 12
-48 21 -101 21 -117 0 -26 50 -277 100 -499 10 -47 22 -102 25 -122 4 -21 11
-38 15 -38 5 0 14 -34 21 -75 6 -41 15 -75 20 -75 4 0 11 -20 15 -45 3 -25 9
-45 13 -45 4 0 16 -40 26 -90 10 -49 24 -90 30 -90 5 0 10 -21 11 -46 1 -31 6
-49 16 -55 9 -5 19 -29 22 -54 5 -29 11 -43 18 -39 8 5 9 1 5 -10 -10 -26 3
-96 18 -96 8 0 15 -21 20 -55 3 -30 10 -53 15 -50 4 3 11 -20 15 -50 4 -35 11
-55 19 -55 8 0 16 -19 20 -49 4 -29 12 -51 21 -55 10 -4 15 -20 15 -50 0 -36
4 -48 21 -56 12 -7 18 -17 15 -27 -9 -23 5 -93 19 -93 16 0 25 -23 25 -65 0
-21 6 -38 17 -43 11 -7 17 -25 19 -57 1 -35 7 -50 23 -61 17 -12 21 -26 21
-65 0 -42 4 -51 23 -60 18 -8 22 -19 23 -56 1 -30 7 -49 17 -54 9 -5 18 -31
22 -59 5 -33 12 -50 21 -50 8 0 14 -3 14 -7 5 -85 10 -107 23 -115 9 -4 19
-29 23 -54 5 -34 12 -48 30 -56 13 -6 21 -15 18 -19 -8 -13 7 -100 16 -94 4 3
11 -20 15 -50 4 -35 11 -55 19 -55 8 0 16 -18 20 -46 3 -26 13 -52 23 -59 10
-8 18 -29 19 -55 1 -23 9 -57 17 -74 21 -42 47 -131 54 -184 3 -23 10 -45 14
-48 5 -3 9 -14 9 -25 0 -10 5 -19 10 -19 6 0 10 -7 10 -15 0 -8 4 -24 10 -35
6 -11 14 -29 20 -40 5 -10 13 -37 16 -59 4 -23 13 -46 20 -52 8 -6 14 -20 14
-30 0 -19 4 -28 28 -76 7 -13 12 -31 12 -42 0 -10 7 -24 15 -31 8 -7 15 -19
15 -27 0 -8 9 -26 20 -40 11 -14 20 -34 20 -44 0 -11 4 -19 9 -19 5 0 13 -15
17 -33 3 -17 17 -42 30 -54 13 -12 24 -29 24 -38 0 -8 9 -24 20 -35 11 -11 20
-27 20 -36 0 -9 11 -25 25 -36 16 -13 25 -29 25 -48 0 -31 30 -56 55 -46 9 3
15 -9 20 -40 3 -24 10 -42 16 -39 5 4 9 1 9 -5 0 -8 9 -10 24 -6 26 6 36 -7
36 -50 0 -31 46 -57 60 -34 7 11 11 8 19 -13 6 -16 11 -37 11 -48 0 -26 48
-49 60 -29 5 9 11 -3 15 -35 7 -40 12 -49 35 -58 22 -8 29 -19 34 -51 4 -22
15 -46 25 -53 10 -7 22 -29 26 -50 4 -21 11 -40 16 -43 16 -11 22 -172 8 -250
-7 -41 -13 -94 -13 -117 -1 -42 -9 -58 -29 -58 -8 0 -13 -24 -15 -67 -3 -62
-1 -68 16 -68 28 0 36 -57 11 -71 -11 -5 -20 -26 -25 -55 -3 -25 -12 -48 -19
-50 -7 -3 -15 -18 -19 -35 l-5 -29 -930 0 c-734 0 -930 3 -933 13 -3 6 -3 33
0 60 3 38 8 47 23 47 17 0 19 8 19 65 0 49 -4 67 -15 71 -12 5 -14 21 -11 84
3 42 7 92 11 111 3 19 7 48 9 64 11 93 20 136 27 141 5 3 9 14 9 24 0 10 6 25
14 32 23 23 37 131 25 196 -6 31 -15 61 -20 67 -5 5 -9 17 -9 27 0 10 -4 18
-10 18 -5 0 -12 11 -16 25 -7 27 -88 116 -123 134 -11 7 -21 18 -21 26 0 8 -3
15 -7 14 -19 -3 -53 15 -53 27 0 8 -6 14 -14 14 -7 0 -32 18 -55 40 -29 28
-41 48 -41 69 0 81 -13 120 -53 163 -22 24 -44 42 -49 40 -4 -1 -8 2 -8 8 0 5
-10 10 -23 10 -13 0 -29 6 -36 13 -11 10 -14 9 -18 -1 -7 -19 -23 -3 -23 24 0
15 -6 24 -15 24 -8 0 -15 5 -15 11 0 6 -6 9 -12 6 -9 -2 -16 16 -23 57 -6 34
-15 61 -20 62 -40 3 -65 25 -71 64 -4 22 -12 40 -18 40 -6 0 -12 15 -12 33 -2
28 -14 157 -30 312 -6 63 -10 102 -12 138 -1 15 -8 27 -16 27 -9 0 -16 18 -21
55 -3 30 -10 53 -15 50 -9 -6 -30 56 -30 88 0 9 -6 17 -14 17 -16 0 -21 12
-32 73 -3 21 -9 36 -11 33 -11 -10 -30 21 -37 59 -4 22 -16 45 -26 52 -10 7
-21 31 -25 53 -4 24 -14 44 -26 50 -11 7 -21 26 -25 50 -4 22 -10 38 -14 35
-4 -3 -11 20 -15 50 -3 30 -10 55 -15 55 -4 0 -11 20 -14 45 -4 25 -11 45 -15
45 -4 0 -15 34 -25 76 -10 42 -24 88 -32 102 -8 15 -14 35 -14 45 0 9 -4 17
-9 17 -5 0 -12 20 -15 45 -4 24 -11 47 -17 50 -5 4 -9 17 -9 31 0 15 -6 24
-15 24 -10 0 -17 14 -21 40 -4 23 -9 38 -12 35 -9 -9 -32 17 -32 36 0 11 -11
24 -25 31 -17 8 -25 19 -25 36 0 14 -3 23 -6 19 -8 -8 -34 18 -34 33 0 7 -11
21 -25 32 -31 24 -25 37 15 36 37 -1 38 -1 41 42 5 71 0 97 -20 103 -11 3 -23
2 -26 -2 -4 -3 -12 -6 -18 -6 -8 0 -13 -23 -15 -62 -2 -35 -7 -63 -12 -63 -6
0 -10 5 -10 10 0 6 -7 10 -15 10 -8 0 -15 6 -15 13 0 7 -9 18 -20 25 -11 7
-20 21 -20 31 0 16 -22 30 -55 35 -5 0 -11 10 -14 21 -2 11 -12 26 -22 33 -11
7 -19 22 -19 32 0 10 -15 28 -35 40 -24 15 -35 29 -35 46 0 15 -6 24 -15 24
-8 0 -15 5 -15 10 0 6 -6 9 -12 8 -8 -2 -14 9 -16 26 -3 21 -11 31 -34 40 -20
7 -31 20 -35 37 -3 15 -16 32 -29 39 -15 8 -26 26 -30 47 -3 18 -9 33 -13 33
-18 0 -51 43 -51 65 0 16 -6 25 -15 25 -8 0 -15 5 -15 11 0 5 -4 7 -10 4 -5
-3 -12 11 -16 33 -5 31 -12 41 -35 49 -23 9 -29 17 -29 41 0 20 -8 35 -24 46
-18 11 -27 29 -31 60 -4 25 -12 44 -18 43 -5 -1 -15 17 -21 41 -6 24 -18 48
-27 53 -10 5 -20 28 -23 54 -4 25 -11 45 -15 45 -5 0 -11 22 -15 50 -4 27 -12
53 -19 57 -7 4 -13 24 -14 43 -6 137 -6 197 0 279 4 52 10 97 12 101 10 17 25
419 17 480 -5 43 -38 65 -68 43 -15 -11 -19 -29 -20 -116 -5 -192 -16 -382
-32 -517 -13 -118 -2 -327 18 -340 7 -4 13 -29 15 -55 2 -26 7 -50 13 -54 6
-3 13 -28 17 -54 5 -30 14 -51 25 -57 11 -6 20 -27 24 -54 4 -24 13 -47 21
-50 8 -3 17 -23 21 -44 4 -25 13 -41 27 -48 15 -6 24 -24 32 -57 5 -27 13 -45
18 -41 4 4 7 2 7 -4 0 -7 7 -12 15 -12 9 0 17 -14 21 -40 4 -21 9 -39 13 -38
19 4 41 -18 47 -47 3 -20 15 -37 30 -45 15 -8 26 -26 30 -47 4 -23 15 -38 35
-49 22 -11 29 -22 29 -45 0 -25 6 -33 31 -42 20 -8 32 -21 36 -38 3 -14 18
-33 34 -43 16 -9 29 -25 29 -34 0 -10 14 -26 30 -35 20 -12 30 -26 30 -41 0
-14 10 -30 24 -40 14 -8 26 -26 28 -38 2 -16 13 -26 36 -33 25 -7 32 -15 32
-34 0 -13 3 -22 6 -18 9 9 34 -19 34 -37 0 -9 3 -16 8 -16 14 0 92 -76 92 -90
0 -9 9 -21 20 -28 11 -7 20 -21 20 -31 0 -10 9 -21 20 -24 11 -3 22 -12 25
-21 3 -9 8 -24 12 -33 3 -10 7 -40 9 -66 3 -56 4 -58 35 -59 33 -2 49 -16 49
-44 0 -12 4 -25 9 -28 5 -3 12 -23 16 -43 4 -21 10 -42 14 -48 4 -5 11 -18 14
-27 5 -13 0 -16 -24 -16 -36 1 -36 1 -39 -42 -6 -73 -1 -102 15 -96 8 3 15 0
15 -6 0 -6 6 -5 17 3 9 8 19 13 22 11 3 -1 9 12 12 30 4 18 7 26 8 17 0 -9 8
-30 16 -45 8 -16 15 -37 15 -46 0 -9 4 -19 9 -23 6 -3 13 -26 17 -50 3 -25 10
-43 14 -40 4 3 11 -20 15 -50 4 -37 11 -55 20 -55 8 0 20 -19 27 -42 7 -24 20
-49 29 -55 9 -7 20 -29 24 -49 4 -22 17 -45 31 -56 17 -14 24 -29 24 -53 0
-23 6 -38 19 -44 12 -7 21 -26 25 -55 4 -24 13 -47 20 -49 8 -3 17 -28 21 -56
4 -31 12 -51 20 -51 12 0 23 -56 30 -155 2 -22 4 -44 5 -50 5 -22 0 -66 -7
-62 -5 3 -18 1 -31 -4 -21 -8 -23 -14 -20 -71 2 -40 7 -63 15 -63 6 0 14 -3
18 -7 4 -4 18 -3 31 2 22 9 24 7 22 -18 -3 -51 2 -82 15 -82 7 0 12 -16 13
-43 1 -31 7 -50 22 -65 13 -13 22 -35 22 -52 0 -23 6 -33 25 -42 18 -8 27 -22
31 -49 4 -21 9 -38 13 -38 21 3 51 -16 51 -31 0 -18 22 -33 50 -34 8 -1 16
-11 18 -23 2 -13 7 -23 12 -23 4 0 18 -11 31 -25 13 -13 29 -25 36 -25 27 0
53 -52 53 -104 0 -56 18 -106 38 -106 6 0 12 -5 12 -10 0 -6 18 -27 40 -49 22
-21 40 -43 40 -49 0 -9 28 -22 55 -26 6 0 21 -11 35 -24 13 -12 27 -22 32 -22
4 0 8 -7 8 -15 0 -8 6 -15 14 -15 19 0 56 -52 56 -79 0 -12 7 -24 15 -27 9 -4
15 -19 15 -39 0 -18 -7 -38 -15 -45 -8 -7 -15 -22 -15 -34 0 -12 -4 -26 -9
-31 -19 -20 -49 -246 -57 -435 -2 -47 -6 -132 -8 -190 -5 -121 -5 -123 -16
-90 -8 24 -8 24 -9 2 l-1 -22 -992 2 -993 3 -3 229 c-1 126 2 251 6 278 6 29
6 65 0 91 -16 73 -28 231 -17 238 11 6 21 207 12 256 -3 18 -9 30 -14 27 -5
-3 -9 -1 -9 5 0 5 -12 11 -27 13 -21 2 -29 9 -31 26 -3 21 -1 22 16 13 11 -6
23 -7 27 -3 3 4 12 7 18 7 8 0 13 23 15 63 3 57 1 63 -20 71 -50 18 -64 -1
-60 -84 l1 -30 -14 35 c-7 19 -14 45 -14 58 -1 12 -5 22 -10 22 -5 0 -11 18
-15 41 -4 23 -13 48 -21 56 -8 8 -15 25 -15 38 0 14 -8 29 -19 35 -11 5 -24
29 -30 52 -28 116 -35 138 -47 138 -6 0 -15 20 -18 45 -4 25 -11 45 -15 45
-24 0 -35 186 -25 388 7 137 -9 272 -32 272 -7 0 -16 16 -20 35 -3 19 -10 38
-15 41 -5 3 -9 19 -9 35 0 17 4 28 9 24 16 -9 24 15 23 73 0 37 -5 58 -15 63
-17 10 -12 58 8 74 32 26 40 195 9 195 -8 0 -14 11 -14 26 0 14 -4 23 -9 19
-5 -3 -13 -1 -16 5 -4 6 -15 8 -26 5 -14 -5 -19 -2 -19 12 0 22 -42 52 -48 34
-2 -6 -10 -11 -18 -11 -8 0 -15 -10 -15 -22 -1 -13 -7 0 -14 27 -7 28 -14 46
-14 40 -1 -5 -6 -3 -11 5 -8 13 -13 13 -30 2 -19 -12 -22 -11 -27 7 -3 12 -9
18 -14 15 -5 -3 -9 0 -9 5 0 6 -6 11 -14 11 -9 0 -14 14 -14 45 -1 48 -8 68
-21 61 -14 -9 -49 23 -54 51 -3 16 -13 57 -22 93 -9 36 -20 92 -25 125 -13
102 -22 135 -35 135 -7 0 -15 18 -19 40 -3 22 -15 49 -26 60 -11 11 -20 29
-20 40 0 12 -10 25 -24 32 -18 7 -27 22 -31 49 -4 22 -11 37 -16 33 -5 -3 -9
0 -9 7 0 6 -8 9 -20 6 -16 -4 -20 2 -26 40 -3 24 -9 42 -11 39 -3 -3 -14 5
-24 17 -10 12 -18 18 -19 13 0 -21 -30 19 -30 41 0 13 -4 22 -9 19 -5 -4 -11
-1 -13 6 -4 10 -10 10 -30 1 -43 -20 -47 -130 -5 -149 12 -5 23 -19 25 -31 2
-13 10 -23 18 -23 8 0 14 -6 14 -14 0 -14 34 -30 58 -27 7 1 12 -11 12 -32 0
-26 6 -39 24 -51 13 -8 27 -29 31 -47 4 -17 16 -40 26 -50 19 -19 28 -75 10
-65 -11 7 -20 -59 -14 -101 4 -21 11 -33 22 -34 57 -4 56 -2 63 -54 11 -87 38
-196 59 -236 4 -9 11 -33 14 -53 4 -20 16 -41 26 -47 11 -5 19 -16 19 -23 0
-7 11 -19 25 -26 14 -7 25 -18 25 -24 0 -15 48 -37 56 -25 8 13 24 11 24 -4 0
-7 14 -18 31 -24 25 -10 30 -17 28 -40 -5 -64 1 -95 16 -89 8 3 15 1 15 -5 0
-6 5 -7 13 -2 6 4 16 8 22 8 5 0 12 17 16 38 8 48 29 73 29 34 0 -15 6 -27 13
-27 8 -1 7 -4 -3 -13 -9 -7 -25 -55 -37 -107 -25 -107 -24 -192 2 -280 9 -30
19 -67 22 -82 3 -16 11 -28 18 -28 25 0 38 -104 29 -234 -9 -143 -7 -238 6
-286 6 -19 10 -54 10 -77 0 -23 4 -44 9 -47 5 -3 12 -22 16 -43 4 -20 12 -42
20 -48 11 -9 38 -95 52 -168 3 -15 12 -27 19 -27 8 0 19 -19 26 -45 7 -25 15
-45 19 -45 4 0 11 -15 14 -32 4 -18 11 -37 15 -43 7 -10 34 -118 46 -187 3
-21 10 -38 15 -38 21 0 31 -63 34 -205 2 -82 8 -193 14 -245 6 -52 11 -209 11
-347 l0 -253 -25 0 c-19 0 -25 6 -26 23 l-2 22 -4 -23 -4 -22 -1035 0 -1034 0
0 89 c0 88 0 89 25 89 36 0 38 4 38 73 -1 67 -2 69 -32 72 -20 1 -21 7 -21 82
0 75 1 81 21 82 30 3 31 5 32 72 0 67 -1 71 -32 74 -20 1 -21 7 -21 103 l0
102 25 0 c32 0 33 0 35 42 6 73 1 102 -15 96 -8 -3 -15 -1 -15 4 0 5 -7 7 -15
4 -18 -7 -19 7 -4 112 7 49 16 82 26 89 14 10 15 26 10 101 -6 79 -3 184 18
543 3 53 12 148 19 211 17 142 13 310 -9 410 -9 41 -18 89 -21 105 -3 17 -10
41 -16 55 -6 14 -14 34 -18 45 -32 88 -57 149 -83 205 -16 36 -36 80 -43 97
-30 69 -49 103 -56 103 -5 0 -8 9 -8 19 0 11 -4 23 -10 26 -5 3 -10 17 -10 30
0 14 -9 29 -20 35 -11 6 -20 18 -20 28 0 9 -9 23 -20 30 -11 7 -20 20 -20 31
0 10 -13 28 -30 41 -16 13 -30 30 -30 39 0 20 -36 45 -45 31 -12 -19 -35 -10
-41 18 -10 38 -31 52 -60 38 -42 -20 -40 -129 3 -149 19 -9 26 -8 34 4 8 12
10 12 19 -1 5 -8 10 -23 10 -33 0 -10 7 -20 15 -23 8 -4 15 -13 15 -21 0 -8
16 -29 35 -46 19 -17 35 -39 35 -49 0 -10 7 -18 15 -18 9 0 18 -12 22 -30 3
-17 10 -33 14 -36 5 -3 9 -16 9 -30 0 -13 5 -24 10 -24 6 0 10 -11 10 -25 0
-14 6 -28 14 -31 8 -3 18 -20 22 -37 3 -18 14 -43 24 -57 10 -14 21 -40 25
-57 3 -18 10 -33 13 -33 4 0 13 -19 20 -42 12 -39 49 -124 73 -170 5 -10 9
-27 9 -39 0 -12 7 -47 15 -78 18 -71 26 -203 14 -256 -4 -22 -11 -79 -14 -127
-6 -78 -9 -87 -26 -85 -10 2 -21 6 -24 9 -4 3 -15 4 -26 1 -20 -6 -25 -32 -20
-103 3 -43 3 -44 46 -42 l35 1 0 -64 c0 -43 -4 -67 -14 -72 -19 -11 -25 -56
-14 -111 10 -53 -4 -276 -27 -417 -11 -67 -15 -222 -19 -602 -2 -281 -7 -516
-10 -522 -5 -8 -298 -11 -1007 -11 l-999 0 -2 353 c-2 193 -2 411 0 484 2 86
0 133 -8 138 -7 4 -10 119 -10 363 0 196 -5 420 -11 497 -28 371 -32 534 -14
689 24 215 19 295 -21 383 -8 17 -14 38 -14 47 0 9 -6 16 -14 16 -8 0 -17 9
-21 19 -3 11 -19 26 -35 33 -17 7 -30 20 -30 28 0 24 -38 44 -56 29 -11 -9
-15 -6 -20 18 -7 36 -39 59 -59 43 -18 -15 -35 -5 -35 19 0 10 -11 26 -25 35
-47 31 -81 -17 -68 -98 7 -42 46 -74 68 -56 17 14 35 5 35 -18 0 -10 10 -23
21 -31 18 -11 23 -11 30 1 7 11 11 10 19 -2 5 -8 10 -22 10 -31 0 -16 26 -34
43 -31 4 1 7 -9 7 -22 0 -15 7 -26 20 -29 11 -3 25 -18 31 -34 6 -15 16 -38
22 -50 6 -13 7 -56 3 -110 -3 -48 -9 -151 -12 -228 -6 -160 -8 -172 -28 -156
-7 6 -16 7 -20 3 -4 -4 -13 -7 -19 -7 -15 0 -22 -114 -8 -128 6 -6 23 -10 39
-9 30 1 30 1 38 -76 19 -189 30 -762 15 -762 -13 0 -16 -121 -2 -136 11 -11
31 -618 31 -941 l0 -243 -1040 0 -1040 0 0 1034 c0 818 3 1036 13 1040 10 5
10 7 0 12 -19 8 -19 1638 0 1632 6 -3 13 -14 15 -26 2 -12 8 -20 13 -17 5 4 9
1 9 -5 0 -6 10 -10 23 -8 18 2 23 -2 25 -25 2 -15 8 -25 13 -22 5 4 9 1 9 -4
0 -6 11 -11 24 -11 13 0 26 -6 29 -12 3 -10 7 -10 20 1 15 12 17 11 17 -7 0
-27 36 -48 54 -33 7 6 15 8 18 6 9 -9 18 71 12 102 -6 31 -39 60 -49 43 -10
-16 -25 -11 -25 8 0 17 -17 30 -65 48 -11 4 -26 6 -32 5 -7 -1 -13 7 -13 18 0
11 -4 23 -10 26 -14 8 -14 602 0 610 14 8 13 118 -1 132 -13 13 -18 357 -22
1415 -2 489 -6 640 -15 651 -9 10 -9 16 -2 19 12 4 13 20 8 326 -4 246 -6 259
-50 248 -12 -3 -18 2 -18 15 0 10 5 16 13 14 6 -2 21 2 32 10 15 12 19 27 19
71 0 58 -13 78 -46 70 -12 -3 -18 2 -18 15 0 10 5 16 13 14 6 -2 21 2 32 11
18 13 20 27 20 160 0 133 -2 146 -19 156 -19 11 -19 11 -1 25 28 20 27 116 0
138 -20 15 -20 15 0 30 18 15 20 28 20 150 0 122 -2 136 -20 150 -19 14 -19
16 -3 28 9 7 19 30 23 50 l7 37 1002 -2 1001 -3 3 -30z m12792 -1005 c0 -984
-1 -1040 -17 -1040 -17 -1 -17 -1 0 -14 16 -12 17 -74 17 -1036 0 -962 -1
-1024 -17 -1036 -17 -13 -17 -13 0 -14 16 0 17 -56 17 -1036 0 -976 -1 -1038
-17 -1050 -17 -13 -17 -13 0 -14 16 0 17 -56 17 -1035 l0 -1035 -1050 0 -1049
0 -10 35 c-6 23 -6 47 0 68 11 36 2 107 -13 107 -5 0 -9 21 -7 47 4 88 2 98
-33 112 -23 10 -28 15 -17 18 33 8 33 115 1 139 -11 8 -13 20 -9 44 8 38 -2
112 -14 105 -4 -3 -7 27 -7 66 1 60 -1 74 -17 86 -15 10 -20 27 -20 69 -1 45
-5 57 -24 70 -17 12 -22 24 -20 52 5 73 0 88 -28 98 -27 9 -28 13 -28 73 -1
52 -4 65 -20 74 -11 6 -24 12 -29 12 -5 0 -10 24 -11 54 -2 61 -15 75 -74 80
-9 1 -11 9 -7 27 10 38 -3 89 -26 103 -17 10 -22 10 -29 0 -11 -18 -42 9 -34
29 7 18 -5 106 -13 98 -3 -3 -11 -1 -19 6 -10 8 -17 8 -25 0 -17 -17 -38 5
-39 42 -1 31 -16 90 -18 71 -1 -5 -5 -4 -10 4 -8 12 -15 13 -33 4 -27 -12 -65
7 -54 26 23 36 -29 116 -58 91 -10 -7 -21 -6 -40 3 -14 8 -23 16 -20 20 9 8
-7 97 -16 92 -5 -3 -10 1 -13 7 -3 10 -9 10 -24 1 -30 -17 -43 2 -43 59 0 42
-3 50 -26 60 -20 9 -27 9 -33 -1 -11 -18 -18 -5 -26 49 -5 34 -13 49 -28 55
-15 7 -25 25 -34 60 -6 28 -12 46 -12 42 -2 -21 -30 24 -37 59 -4 21 -10 41
-13 44 -12 10 -31 50 -31 65 0 9 -7 18 -15 21 -8 3 -17 26 -21 50 -3 24 -10
44 -15 44 -5 0 -9 8 -9 19 0 25 -28 119 -46 153 -8 14 -14 36 -14 47 0 12 -4
21 -8 21 -5 0 -14 31 -21 69 -7 39 -19 75 -27 82 -8 6 -14 22 -14 35 0 13 -4
24 -10 24 -5 0 -13 12 -16 28 -4 15 -10 32 -15 38 -5 5 -8 21 -7 35 3 49 -2
79 -15 79 -23 0 -63 55 -77 105 -7 28 -17 55 -22 62 -14 18 -5 58 12 58 11 0
16 15 18 63 3 57 1 63 -20 71 -13 5 -28 6 -35 4 -7 -3 -22 2 -34 11 -17 12
-23 27 -25 62 -1 31 -7 50 -18 56 -9 5 -16 22 -16 37 0 45 -12 91 -21 85 -12
-7 -11 37 1 56 8 12 10 9 10 -11 0 -30 23 -41 58 -28 21 8 23 14 20 71 -2 40
-7 63 -15 63 -6 0 -14 3 -18 6 -3 4 -15 5 -26 2 -13 -4 -19 -14 -19 -34 0 -15
-4 -31 -10 -34 -6 -4 -10 5 -10 19 0 16 -6 26 -15 26 -8 0 -15 3 -15 8 -5 78
-10 106 -21 113 -8 5 -14 21 -15 36 -2 70 -5 83 -18 83 -11 0 -14 15 -13 61 1
48 -2 63 -16 70 -10 6 -17 22 -17 38 0 48 -12 91 -23 84 -7 -4 -8 6 -4 30 7
47 -2 107 -17 107 -8 0 -12 20 -12 56 0 34 -5 58 -13 63 -7 5 -14 31 -16 61
-1 29 -7 55 -12 59 -6 3 -10 31 -10 61 1 30 -3 62 -8 70 -5 8 -10 37 -11 63 0
30 -6 52 -15 57 -7 5 -14 26 -15 47 -3 66 -15 177 -21 193 -4 8 -7 37 -8 64
-1 28 -8 54 -16 60 -8 6 -14 27 -15 46 -1 68 -12 168 -19 180 -4 6 -9 32 -11
58 -2 26 -6 65 -8 87 -3 22 -7 71 -10 109 -3 38 -9 72 -14 75 -5 3 -9 22 -9
41 1 47 -13 223 -18 230 -4 7 -15 146 -21 270 -6 129 -11 1305 -6 1512 l4 197
28 -1 c33 -1 50 8 50 28 0 12 273 14 2060 14 l2060 0 0 -1040z"/>
<path d="M4540 9229 c0 -5 -4 -8 -9 -5 -25 16 -22 -120 3 -136 8 -6 7 -11 -4
-18 -20 -13 -20 -118 1 -131 12 -8 12 -10 -1 -19 -20 -13 -20 -118 1 -131 12
-8 12 -10 -1 -19 -12 -7 -15 -35 -15 -140 0 -105 3 -133 15 -140 13 -9 13 -11
1 -19 -11 -7 -16 -35 -19 -98 -2 -48 -3 -95 -3 -103 4 -43 12 -1103 14 -1870
1 -650 5 -880 14 -895 6 -11 14 -27 17 -36 2 -9 18 -23 35 -30 17 -8 31 -21
31 -31 0 -23 37 -43 54 -29 7 6 15 8 18 6 9 -9 18 71 12 103 -6 28 -23 44 -49
46 -5 1 -11 10 -13 21 -2 11 -8 25 -13 31 -4 5 -10 237 -12 515 -13 1541 -18
2222 -17 2292 1 64 -1 77 -14 77 -20 0 -21 16 -1 24 12 4 15 30 15 141 0 113
-2 135 -15 135 -8 0 -15 4 -15 9 0 5 7 11 15 15 11 4 15 21 15 66 0 47 -3 60
-15 60 -8 0 -15 4 -15 9 0 5 7 11 15 15 11 4 15 21 15 66 0 47 -3 60 -15 60
-8 0 -15 4 -15 9 0 5 7 11 15 15 11 4 15 21 15 65 0 49 -4 62 -19 71 -25 13
-41 13 -41 -1z"/>
<path d="M7090 5929 c0 -5 -4 -8 -9 -5 -13 8 -22 -74 -13 -109 9 -34 61 -69
69 -47 3 6 8 10 13 7 12 -7 22 60 14 100 -6 34 -35 65 -61 65 -7 0 -13 -5 -13
-11z"/>
<path d="M5139 5267 c-8 -7 -18 -23 -22 -37 -9 -35 3 -100 18 -100 8 0 16 -6
19 -12 5 -10 7 -10 12 0 8 17 24 15 24 -3 0 -8 6 -15 14 -15 8 0 16 -5 18 -11
7 -22 46 14 53 47 11 60 -19 121 -53 109 -7 -3 -23 4 -34 15 -25 23 -28 23
-49 7z"/>
<path d="M5625 5075 c-26 -21 -28 -122 -2 -136 12 -7 17 -23 17 -55 0 -37 4
-46 22 -53 35 -13 56 -2 61 32 6 40 -3 108 -13 102 -4 -3 -11 20 -15 50 -4 38
-11 55 -21 55 -8 0 -14 5 -14 10 0 14 -11 12 -35 -5z"/>
<path d="M5827 4998 c-15 -12 -23 -54 -19 -108 2 -26 47 -56 58 -39 10 17 34
9 34 -11 0 -26 36 -46 56 -29 11 9 14 8 14 -5 0 -21 51 -47 58 -28 2 7 7 10
12 7 11 -7 21 67 14 102 -6 31 -39 60 -49 43 -9 -14 -25 -12 -25 3 0 17 -37
39 -45 27 -3 -6 -15 -10 -26 -10 -14 0 -19 7 -19 26 0 14 -4 23 -10 19 -5 -3
-10 -1 -10 4 0 15 -23 14 -43 -1z"/>
<path d="M3158 4982 c-17 -3 -24 -33 -20 -83 1 -12 -4 -15 -18 -12 -12 3 -20
0 -20 -6 0 -7 -4 -10 -9 -7 -13 8 -23 -60 -15 -97 9 -44 32 -59 60 -40 13 8
25 22 27 31 3 10 5 5 6 -11 1 -31 50 -64 59 -39 2 7 7 10 12 7 11 -7 21 67 14
103 -4 17 -13 33 -21 36 -8 3 -14 16 -13 28 6 64 0 86 -22 90 -13 2 -31 2 -40
0z"/>
<path d="M3650 4729 c0 -5 -4 -8 -9 -5 -11 7 -22 -65 -15 -101 6 -31 39 -60
49 -43 9 14 35 13 35 -1 0 -23 31 -37 55 -25 44 20 41 129 -3 149 -20 9 -26 9
-30 -1 -5 -17 -22 -15 -22 3 0 14 -29 35 -49 35 -6 0 -11 -5 -11 -11z"/>
<path d="M15220 6875 l0 -2695 988 2 987 3 3 2693 2 2692 -990 0 -990 0 0
-2695z m1970 0 l0 -2675 -980 0 -980 0 0 2675 0 2675 980 0 980 0 0 -2675z"/>
<path d="M16120 9330 l0 -110 32 4 c47 5 68 37 68 106 0 69 -22 104 -69 108
l-31 2 0 -110z"/>
<path d="M16120 8880 l0 -110 32 4 c47 5 68 37 68 106 0 69 -22 104 -69 108
l-31 2 0 -110z"/>
<path d="M16120 8445 l0 -105 34 0 c48 0 66 28 66 105 0 77 -18 105 -66 105
l-34 0 0 -105z"/>
<path d="M16120 8010 l0 -110 32 4 c47 5 68 37 68 106 0 69 -22 104 -69 108
l-31 2 0 -110z"/>
<path d="M16120 7560 l0 -110 32 4 c47 5 68 37 68 106 0 69 -22 104 -69 108
l-31 2 0 -110z"/>
<path d="M16120 7125 l0 -105 34 0 c48 0 66 28 66 105 0 77 -18 105 -66 105
l-34 0 0 -105z"/>
<path d="M16360 6689 l0 -107 32 3 c47 4 68 36 68 105 0 72 -26 111 -71 108
l-29 -2 0 -107z"/>
<path d="M16770 6780 c-12 -23 -13 -160 -1 -179 14 -22 40 -21 56 2 19 28 20
146 1 172 -18 25 -44 27 -56 5z"/>
<path d="M16360 6239 l0 -107 32 3 c47 4 68 36 68 105 0 72 -26 111 -71 108
l-29 -2 0 -107z"/>
<path d="M16770 6330 c-12 -23 -13 -160 -1 -179 14 -22 40 -21 56 2 19 28 20
146 1 172 -18 25 -44 27 -56 5z"/>
<path d="M16360 5805 l0 -105 34 0 c48 0 66 28 66 105 0 77 -18 105 -66 105
l-34 0 0 -105z"/>
<path d="M16932 5885 c-7 -14 -12 -50 -12 -80 0 -69 16 -105 46 -105 28 0 39
29 39 105 0 76 -11 105 -39 105 -15 0 -27 -9 -34 -25z"/>
<path d="M16360 5369 l0 -107 32 3 c47 4 68 36 68 105 0 72 -26 111 -71 108
l-29 -2 0 -107z"/>
<path d="M16360 4919 l0 -107 32 3 c47 4 68 36 68 105 0 72 -26 111 -71 108
l-29 -2 0 -107z"/>
<path d="M16935 5007 c-10 -14 -15 -45 -15 -87 0 -71 17 -110 47 -106 10 2 23
18 30 37 34 98 -15 223 -62 156z"/>
<path d="M16360 4485 l0 -105 34 0 c48 0 66 28 66 105 0 77 -18 105 -66 105
l-34 0 0 -105z"/>
<path d="M1843 5861 c-35 -30 -43 -64 -42 -184 1 -62 4 -102 6 -89 5 23 36 31
48 11 4 -6 13 -8 21 -5 8 3 14 1 14 -4 0 -6 9 -10 19 -10 11 0 23 -5 26 -10 4
-6 10 -8 15 -5 5 3 11 1 15 -5 3 -5 15 -10 25 -10 13 0 23 -11 29 -32 8 -25
10 -2 8 97 l-3 130 -36 57 c-52 80 -97 99 -145 59z m98 -53 c5 -7 9 -9 9 -4 0
22 40 -30 54 -72 20 -57 22 -157 4 -145 -7 4 -17 8 -23 8 -5 1 -23 7 -40 15
-16 7 -32 14 -35 15 -91 31 -95 35 -98 101 -2 50 1 63 19 83 18 19 29 22 62
18 22 -3 44 -11 48 -19z"/>
<path d="M1826 4884 c-9 -8 -16 -25 -16 -37 0 -16 3 -18 12 -9 38 38 78 -17
78 -108 0 -53 -4 -58 -34 -35 -11 8 -28 15 -37 15 -15 0 -19 11 -22 58 -2 34
-4 17 -4 -43 -1 -68 1 -93 7 -77 11 27 11 27 54 3 19 -11 36 -17 39 -15 2 3
21 -4 41 -15 20 -12 37 -20 39 -19 10 8 36 -23 40 -47 2 -16 4 6 4 50 0 44 -2
70 -4 57 -4 -18 -9 -21 -31 -16 -15 4 -33 11 -39 17 -7 5 -13 6 -13 2 0 -4 -7
-2 -15 5 -18 15 -20 96 -3 107 18 10 52 10 60 -1 11 -16 37 13 44 49 6 34 -9
75 -27 75 -6 0 -3 -7 5 -16 9 -8 16 -24 16 -35 0 -16 -7 -19 -42 -19 -24 0
-49 -7 -59 -16 -16 -14 -18 -13 -24 18 -7 33 -31 68 -46 68 -4 0 -15 -7 -23
-16z"/>
</g>
</svg>
