<?xml version="1.0" standalone="no"?>
<!DOCTYPE svg PUBLIC "-//W3C//DTD SVG 20010904//EN"
 "http://www.w3.org/TR/2001/REC-SVG-20010904/DTD/svg10.dtd">
<svg version="1.0" xmlns="http://www.w3.org/2000/svg"
 width="1920.000000pt" height="1080.000000pt" viewBox="0 0 1920.000000 1080.000000"
 preserveAspectRatio="xMidYMid meet">
<metadata>
Created by potrace 1.11, written by Peter Selinger 2001-2013
</metadata>
<g transform="translate(0.000000,1080.000000) scale(0.100000,-0.100000)"
fill="#000000" stroke="none">
<path d="M7195 10526 c-21 -27 -27 -48 -28 -84 -1 -58 6 -70 49 -88 43 -18 52
-51 29 -109 -13 -35 -22 -45 -39 -45 -32 0 -46 19 -46 64 0 53 -16 35 -25 -28
-6 -43 -5 -48 8 -38 11 10 17 9 27 -3 21 -26 49 -17 80 27 24 33 30 51 30 92
-1 46 -19 93 -32 81 -3 -3 -17 6 -31 19 -31 29 -35 70 -11 105 13 18 23 22 46
17 21 -4 28 -2 26 7 -3 6 -16 13 -30 15 -20 2 -33 -5 -53 -32z"/>
<path d="M7373 10545 c15 -11 18 -22 13 -52 -30 -203 -41 -261 -52 -280 -8
-12 -14 -24 -14 -26 0 -9 60 -5 65 4 4 5 -1 9 -11 9 -19 0 -17 25 10 200 15
101 21 84 32 -85 3 -60 9 -114 11 -118 9 -16 30 38 23 58 -4 11 -10 70 -14
130 -10 169 -12 175 -50 175 -29 -1 -30 -2 -13 -15z"/>
<path d="M7865 10534 c-34 -53 -41 -184 -13 -291 14 -56 31 -70 63 -53 37 20
48 70 44 207 -3 102 -7 124 -23 142 -26 28 -50 26 -71 -5z m62 -31 c12 -29 14
-63 11 -148 -5 -140 -32 -195 -60 -127 -13 31 -16 219 -5 275 10 48 33 48 54
0z"/>
<path d="M8016 10536 c-46 -71 -39 -294 11 -345 23 -23 59 4 78 57 17 53 20
179 4 237 -20 74 -62 97 -93 51z m55 -13 c19 -22 20 -268 1 -300 -31 -56 -54
-3 -56 127 -2 162 17 220 55 173z"/>
<path d="M8193 10538 c-30 -32 -43 -90 -43 -187 0 -66 5 -94 21 -128 24 -50
42 -54 75 -16 35 41 41 102 14 158 -21 44 -50 59 -65 35 -3 -5 3 -10 15 -10
35 0 52 -86 31 -160 -10 -35 -39 -38 -51 -5 -15 41 -7 265 11 293 21 33 45 24
41 -16 -3 -24 0 -32 12 -32 20 0 21 47 2 73 -18 23 -38 22 -63 -5z"/>
<path d="M9650 10551 c0 -5 5 -11 11 -13 9 -3 7 -34 -5 -118 -9 -63 -16 -132
-16 -152 0 -47 -8 -68 -28 -68 -8 0 -12 -3 -8 -7 11 -11 75 -12 82 -2 3 5 -2
9 -12 9 -14 0 -16 8 -10 61 10 83 13 89 50 89 17 0 41 7 53 15 12 8 23 12 26
7 2 -4 2 -2 1 5 -4 16 22 37 30 24 4 -6 0 -52 -9 -102 -14 -82 -14 -131 1
-117 3 3 11 43 19 89 7 46 18 96 24 112 12 30 36 38 26 8 -6 -21 10 -38 20
-21 10 17 -4 60 -19 60 -8 0 -17 -7 -20 -15 -5 -14 -8 -14 -31 1 -20 13 -25
24 -25 58 0 23 -7 52 -16 64 -13 19 -24 22 -80 22 -35 0 -64 -4 -64 -9z"/>
<path d="M8889 10417 c-35 -27 -51 -67 -53 -131 -1 -50 3 -68 18 -85 27 -29
41 -26 73 16 25 32 28 45 28 108 0 54 -4 76 -17 88 -20 20 -28 21 -49 4z"/>
<path d="M9988 10416 c-50 -38 -69 -180 -30 -219 19 -18 24 -19 46 -7 32 16
56 77 56 138 0 79 -33 119 -72 88z"/>
<path d="M11384 10405 c-4 -14 -4 -29 0 -32 3 -4 6 1 6 10 0 10 5 17 10 17 19
0 -16 -278 -38 -302 -14 -17 -13 -18 15 -18 30 0 30 1 26 45 -7 58 1 82 22 65
13 -11 20 -9 39 9 45 43 59 179 22 217 -14 14 -18 14 -31 0 -16 -15 -45 -12
-45 5 0 20 -20 7 -26 -16z"/>
<path d="M11678 10416 c-42 -32 -67 -145 -44 -200 17 -41 18 -42 50 -21 21 14
24 14 29 0 8 -19 23 -19 31 1 3 8 2 12 -4 9 -18 -11 -22 24 -10 97 6 40 14 80
16 89 3 10 -3 19 -13 23 -10 3 -22 8 -28 11 -5 2 -18 -2 -27 -9z"/>
<path d="M2402 5528 l3 -4193 7440 0 7440 0 3 4193 2 4192 -7445 0 -7445 0 2
-4192z m2177 4164 c-34 -6 -33 -113 0 -139 15 -11 14 -12 0 -13 -29 0 -29 50
-14 -1000 3 -217 7 -525 10 -685 6 -375 8 -600 6 -650 -2 -22 0 -105 3 -185 3
-80 7 -332 11 -560 8 -633 14 -870 20 -880 3 -4 -2 -36 -11 -69 -8 -34 -12
-66 -8 -73 4 -7 9 -100 12 -208 3 -175 4 -215 10 -298 1 -13 12 -27 26 -33 20
-10 23 -18 24 -66 0 -30 3 -57 6 -60 3 -3 20 -6 38 -5 18 0 36 -5 41 -11 7 -9
10 -9 14 1 2 6 10 12 18 12 15 0 26 61 18 101 -6 32 -57 76 -68 59 -16 -25
-32 -8 -33 33 0 66 -1 419 0 552 1 186 -3 390 -13 760 -5 187 -12 579 -15 870
-5 549 -13 1153 -15 1240 -1 28 -1 66 0 85 1 19 -1 136 -5 260 -3 124 -7 344
-8 490 -4 338 -2 320 -23 320 -16 1 -16 2 -2 13 8 7 18 23 22 37 10 37 -3 100
-20 100 -8 0 -12 3 -10 8 3 4 462 6 1021 4 l1016 -2 1 -23 c0 -12 3 -16 6 -9
8 19 23 14 23 -9 0 -11 -4 -18 -9 -15 -12 8 -22 -65 -15 -102 7 -34 24 -45 59
-36 38 9 44 112 8 141 -13 10 -12 14 6 32 21 21 21 21 1031 21 l1010 0 1 -22
2 -23 4 23 c4 22 6 22 178 22 l174 0 7 -45 c3 -25 10 -42 15 -39 5 3 9 -29 9
-71 0 -57 4 -77 14 -81 10 -4 14 -19 13 -47 -2 -58 21 -200 34 -208 6 -3 13
-28 15 -55 2 -27 6 -67 8 -89 3 -22 7 -71 10 -109 3 -38 9 -72 14 -75 5 -3 9
-22 9 -41 0 -87 11 -193 21 -199 5 -3 10 -26 9 -51 0 -25 3 -83 7 -130 8 -88
12 -145 15 -193 1 -19 9 -31 27 -39 21 -10 23 -14 12 -23 -8 -5 -17 -21 -21
-35 -9 -35 3 -100 18 -100 10 0 11 -10 4 -42 -18 -78 11 -136 56 -114 37 17
44 127 10 140 -11 4 -11 13 -4 41 13 46 3 94 -25 117 -14 12 -17 20 -10 25 18
13 26 68 15 110 -6 21 -12 94 -15 162 -3 69 -10 127 -15 131 -6 3 -10 26 -10
50 2 72 -8 187 -16 201 -5 7 -10 37 -12 68 -2 31 -5 72 -7 91 -2 19 -8 66 -12
103 -4 42 -12 71 -20 74 -10 3 -12 17 -8 47 7 45 -21 176 -39 188 -6 4 -12 34
-12 68 -1 40 -6 64 -14 70 -10 6 -12 20 -7 54 l7 46 840 0 c792 0 839 -1 840
-17 1 -17 2 -17 6 -1 4 16 29 18 306 20 166 2 641 2 1055 0 l752 -2 1 -23 2
-22 4 23 4 23 365 -3 c297 -2 366 -6 373 -17 7 -11 13 -11 32 3 21 15 169 16
1746 16 l1723 0 0 -830 c0 -784 -1 -830 -17 -830 -17 -1 -17 -1 0 -14 16 -12
17 -64 17 -826 0 -762 -1 -814 -17 -826 -17 -13 -17 -13 0 -14 16 0 17 -46 17
-826 0 -776 -1 -828 -17 -840 -17 -13 -17 -13 0 -14 16 0 17 -46 17 -825 0
-779 -1 -825 -17 -825 -17 -1 -17 -1 0 -14 16 -12 17 -64 17 -840 l0 -826
-1050 0 -1051 0 -5 28 c-8 41 -38 57 -69 36 -13 -8 -25 -25 -27 -37 l-3 -22
-1010 0 -1010 0 -5 35 c-4 31 -8 35 -38 36 -18 1 -35 -3 -38 -8 -3 -5 -12 -4
-19 2 -19 16 -52 -7 -59 -42 l-5 -28 -930 0 -930 0 -7 23 c-6 20 -15 132 -14
182 2 104 4 134 9 133 3 0 9 1 14 2 4 1 13 3 20 4 8 1 13 24 15 69 3 71 0 75
-55 68 -16 -2 -17 16 -1 21 9 3 12 59 14 204 1 241 0 229 20 248 12 12 16 35
15 87 0 38 -3 75 -7 80 -6 11 26 40 37 33 9 -5 22 83 15 95 -9 14 4 41 20 41
8 0 15 11 16 28 0 15 3 45 4 67 4 49 4 258 0 300 -1 17 -3 42 -4 58 -1 15 -8
27 -15 27 -9 0 -13 17 -13 56 0 42 -4 58 -17 65 -12 7 -17 23 -17 54 0 33 -5
47 -19 55 -11 5 -23 24 -27 42 -3 18 -15 39 -25 46 -10 7 -21 31 -24 55 -5 31
-13 46 -28 52 -12 6 -26 25 -31 45 -6 19 -18 41 -27 48 -10 6 -21 26 -24 44
-4 18 -18 40 -31 51 -13 10 -24 27 -24 37 0 11 -9 24 -20 30 -12 7 -22 25 -26
51 -4 22 -9 38 -11 35 -10 -9 -43 29 -43 50 0 13 -8 24 -20 27 -12 3 -20 14
-20 26 0 12 -6 24 -14 27 -8 3 -18 19 -21 36 -4 16 -16 39 -26 49 -10 10 -19
28 -19 40 0 11 -4 17 -10 14 -5 -3 -13 7 -16 22 -4 15 -18 36 -31 46 -13 10
-23 27 -23 38 0 11 -4 17 -10 14 -5 -3 -12 6 -16 20 -6 24 -20 40 -99 114 -14
13 -25 31 -25 40 0 20 -36 45 -45 30 -5 -6 -11 -7 -18 0 -17 13 -42 -8 -50
-41 -8 -30 1 -108 12 -106 14 3 41 -15 41 -28 0 -8 7 -14 15 -14 8 0 17 -11
21 -25 4 -14 9 -24 11 -21 7 7 33 -20 33 -33 0 -6 7 -11 15 -11 9 0 18 -12 21
-29 4 -17 12 -32 20 -35 8 -3 14 -16 14 -28 0 -14 9 -27 22 -33 13 -6 25 -19
27 -30 2 -11 9 -24 17 -28 8 -4 14 -19 14 -32 0 -16 6 -25 15 -25 10 0 17 -14
21 -40 4 -23 9 -38 12 -35 8 8 32 -16 32 -33 0 -8 11 -25 25 -38 14 -13 25
-32 25 -42 0 -11 7 -22 15 -26 8 -3 17 -23 21 -44 4 -26 13 -41 27 -48 13 -5
23 -20 25 -36 2 -16 8 -28 13 -28 5 0 9 -4 9 -10 0 -5 -6 -10 -14 -10 -16 0
-24 -51 -18 -106 3 -25 8 -34 18 -30 8 3 14 1 14 -5 0 -6 5 -7 13 -2 6 4 17 8
22 8 6 0 12 15 15 34 4 28 7 32 17 20 6 -8 15 -28 19 -44 4 -16 18 -38 31 -48
16 -13 23 -29 23 -52 0 -24 7 -37 25 -49 14 -10 27 -30 31 -51 3 -19 10 -35
14 -35 5 0 11 -23 15 -51 4 -28 12 -53 19 -55 7 -3 12 -25 12 -53 0 -27 6 -57
13 -65 21 -25 23 -204 3 -215 -10 -6 -15 -26 -16 -61 -1 -37 -6 -55 -19 -65
-12 -9 -20 -32 -24 -69 -4 -35 -11 -56 -18 -56 -15 0 -27 -65 -19 -98 4 -12 1
-29 -6 -37 -9 -11 -14 -79 -17 -233 -5 -291 -5 -295 9 -304 10 -6 10 -10 -1
-17 -10 -7 -14 -39 -14 -136 0 -97 4 -129 14 -136 10 -6 11 -11 3 -17 -18 -12
-23 -63 -12 -115 11 -54 1 -101 -12 -57 -8 24 -8 24 -9 2 l-1 -22 -992 2 -993
3 2 370 c2 346 8 626 17 755 3 30 7 98 10 150 8 129 40 340 78 512 23 102 33
173 34 248 3 150 -2 174 -37 187 -23 9 -29 17 -29 41 0 20 -8 35 -23 45 -29
19 -52 4 -61 -41 -9 -38 -22 -48 -41 -32 -10 8 -15 9 -15 2 0 -6 -7 -9 -15 -6
-11 5 -15 -2 -16 -27 -2 -43 2 -103 7 -108 5 -5 65 -4 70 2 2 2 5 28 6 58 0
30 3 47 6 39 3 -8 14 -22 24 -31 14 -13 20 -36 25 -97 6 -80 -11 -212 -27
-212 -5 0 -11 -26 -15 -58 -11 -107 -36 -177 -66 -185 -16 -4 -19 -15 -19 -66
0 -48 4 -63 16 -68 14 -5 15 -17 9 -92 -15 -157 -23 -437 -30 -1026 -2 -198
-4 -361 -4 -362 -1 -2 -12 -3 -26 -3 -19 0 -25 6 -26 23 l-2 22 -4 -23 -4 -22
-1035 0 c-569 0 -1035 3 -1035 8 -1 4 -3 43 -4 87 -3 84 7 114 31 94 10 -8 14
-8 14 -1 0 6 7 9 15 6 16 -6 21 23 15 96 -3 43 -3 44 -43 42 l-33 -1 1 214 c0
118 4 217 8 221 3 4 13 1 22 -6 10 -8 15 -9 15 -2 0 6 7 9 15 6 16 -6 21 23
15 96 -3 43 -3 43 -40 42 -16 0 -31 5 -31 11 -1 7 -2 107 -3 224 l-1 212 33
-1 c39 -2 39 -1 42 42 6 73 1 102 -15 96 -8 -3 -15 0 -15 6 0 7 -4 7 -14 -1
-10 -8 -16 -9 -21 -1 -3 5 -3 107 1 226 6 174 10 214 20 210 8 -3 14 -1 14 4
0 5 7 7 15 4 16 -6 21 23 15 96 -2 41 -2 41 -30 43 -19 1 -21 5 -15 47 3 25 8
79 10 120 3 41 8 104 12 140 12 116 6 383 -9 395 -7 5 -14 30 -14 56 -1 45 -3
49 -61 111 -11 12 -20 15 -28 8 -9 -8 -14 0 -19 32 -8 51 -29 69 -62 54 -25
-12 -35 -51 -26 -104 5 -34 33 -58 58 -48 11 4 14 -4 14 -34 0 -29 5 -42 20
-50 11 -6 20 -17 20 -25 0 -8 6 -15 13 -15 8 0 13 -23 14 -74 l2 -75 -30 1
c-16 1 -32 -2 -36 -5 -8 -8 -7 -126 1 -134 3 -3 17 -6 31 -6 23 1 32 -14 25
-42 -1 -5 -4 -35 -5 -65 -2 -30 -8 -86 -14 -125 -30 -179 -34 -317 -35 -1260
l-1 -970 -1008 -3 c-927 -2 -1008 -1 -1014 14 -9 23 -7 263 2 351 4 39 4 80 0
90 -12 27 -14 516 -2 531 6 8 7 44 2 100 -4 48 -6 184 -5 302 5 309 5 304 -2
880 -4 332 -10 547 -18 585 -27 141 -51 189 -116 231 -13 9 -24 26 -24 38 0
27 -40 48 -62 32 -8 -6 -18 -23 -21 -38 -8 -30 1 -108 12 -105 18 5 51 -26 51
-48 0 -16 6 -25 15 -25 37 0 66 -162 68 -381 2 -166 2 -167 -19 -158 -54 20
-76 -15 -64 -101 5 -35 7 -36 62 -32 10 1 18 12 20 30 2 15 3 -479 3 -1098 -1
-619 2 -1136 6 -1150 3 -14 4 -31 2 -37 -4 -10 -221 -13 -1044 -13 l-1039 0 0
829 c0 654 3 831 13 835 9 5 9 7 0 12 -19 8 -19 1650 0 1658 10 5 10 7 0 12
-10 4 -13 181 -13 834 0 653 3 830 13 834 10 5 10 7 0 12 -19 8 -19 1640 0
1648 9 5 10 7 0 12 -10 4 -13 181 -13 835 l0 829 1055 0 c998 0 1055 -1 1056
-17 1 -16 2 -16 6 -1 2 9 14 18 26 20 26 5 50 -5 26 -10z"/>
<path d="M15220 6875 l0 -2695 988 2 987 3 3 2693 2 2692 -990 0 -990 0 0
-2695z m1970 0 l0 -2675 -980 0 -980 0 0 2675 0 2675 980 0 980 0 0 -2675z"/>
<path d="M16120 9330 l0 -110 32 4 c47 5 68 37 68 106 0 69 -22 104 -69 108
l-31 2 0 -110z"/>
<path d="M16120 8880 l0 -110 32 4 c47 5 68 37 68 106 0 69 -22 104 -69 108
l-31 2 0 -110z"/>
<path d="M16120 8445 l0 -105 34 0 c48 0 66 28 66 105 0 77 -18 105 -66 105
l-34 0 0 -105z"/>
<path d="M16120 8010 l0 -110 32 4 c47 5 68 37 68 106 0 69 -22 104 -69 108
l-31 2 0 -110z"/>
<path d="M16120 7560 l0 -110 32 4 c47 5 68 37 68 106 0 69 -22 104 -69 108
l-31 2 0 -110z"/>
<path d="M16120 7125 l0 -105 34 0 c48 0 66 28 66 105 0 77 -18 105 -66 105
l-34 0 0 -105z"/>
<path d="M16360 6689 l0 -107 32 3 c47 4 68 36 68 105 0 72 -26 111 -71 108
l-29 -2 0 -107z"/>
<path d="M16770 6780 c-12 -23 -13 -160 -1 -179 14 -22 40 -21 56 2 19 28 20
146 1 172 -18 25 -44 27 -56 5z"/>
<path d="M16360 6239 l0 -107 32 3 c47 4 68 36 68 105 0 72 -26 111 -71 108
l-29 -2 0 -107z"/>
<path d="M16770 6330 c-12 -23 -13 -160 -1 -179 14 -22 40 -21 56 2 19 28 20
146 1 172 -18 25 -44 27 -56 5z"/>
<path d="M16360 5805 l0 -105 34 0 c48 0 66 28 66 105 0 77 -18 105 -66 105
l-34 0 0 -105z"/>
<path d="M16932 5885 c-7 -14 -12 -50 -12 -80 0 -69 16 -105 46 -105 28 0 39
29 39 105 0 76 -11 105 -39 105 -15 0 -27 -9 -34 -25z"/>
<path d="M16360 5369 l0 -107 32 3 c47 4 68 36 68 105 0 72 -26 111 -71 108
l-29 -2 0 -107z"/>
<path d="M16360 4919 l0 -107 32 3 c47 4 68 36 68 105 0 72 -26 111 -71 108
l-29 -2 0 -107z"/>
<path d="M16935 5007 c-10 -14 -15 -45 -15 -87 0 -71 17 -110 47 -106 10 2 23
18 30 37 34 98 -15 223 -62 156z"/>
<path d="M16360 4485 l0 -105 34 0 c48 0 66 28 66 105 0 77 -18 105 -66 105
l-34 0 0 -105z"/>
<path d="M6685 9470 c-4 -6 -11 -8 -16 -5 -10 7 -10 8 -15 -140 -5 -164 5
-193 60 -179 20 5 25 17 39 94 14 81 14 95 0 152 -17 72 -49 108 -68 78z"/>
<path d="M6685 9110 c-4 -6 -10 -8 -14 -5 -12 7 -22 -67 -15 -104 4 -17 10
-31 15 -31 5 0 9 -7 9 -15 0 -8 -4 -15 -9 -15 -13 0 -22 -58 -15 -101 4 -22 9
-37 12 -34 3 2 11 0 18 -6 19 -16 50 5 57 40 9 41 -3 101 -19 101 -8 0 -14 7
-14 15 0 8 6 15 14 15 16 0 28 63 19 100 -9 38 -44 62 -58 40z"/>
<path d="M6674 8763 c-6 -5 -14 -20 -18 -35 -8 -34 3 -110 15 -102 5 3 9 -4 9
-16 0 -12 -4 -19 -9 -16 -12 8 -23 -68 -15 -102 4 -15 12 -30 18 -34 8 -6 6
-11 -4 -17 -10 -7 -14 -28 -14 -66 0 -38 4 -59 14 -66 13 -8 13 -10 0 -18 -10
-7 -14 -28 -14 -66 0 -38 4 -59 14 -66 13 -8 13 -10 1 -18 -16 -10 -16 -7 -7
-751 8 -582 8 -823 1 -920 -10 -142 -12 -273 -3 -304 5 -20 4 -32 -4 -37 -18
-11 -16 -118 2 -129 12 -8 12 -10 -2 -15 -30 -12 -32 -135 -2 -135 8 0 11 -6
8 -15 -4 -8 -12 -15 -19 -15 -15 0 -27 -65 -18 -100 4 -14 14 -31 22 -37 15
-12 15 -14 0 -25 -8 -7 -18 -24 -22 -38 -9 -35 3 -100 18 -100 8 0 15 -5 17
-11 3 -9 10 -8 25 2 38 23 40 118 4 147 -14 11 -14 13 4 27 15 12 19 27 19 72
0 35 -4 58 -12 61 -17 5 -15 32 2 32 27 0 29 104 3 138 -7 8 -5 12 5 12 18 0
29 55 21 103 -5 31 -3 33 23 33 23 -1 29 4 34 29 4 17 5 47 2 68 -4 34 -14 43
-44 38 -4 0 -5 36 -2 82 2 45 7 233 10 417 3 184 10 337 14 340 18 11 16 141
-2 137 -15 -3 -16 426 -1 488 10 45 6 118 -7 110 -15 -9 -18 26 -17 158 1 115
-1 129 -19 142 -16 12 -16 14 -3 15 34 0 33 111 0 137 -14 11 -14 12 1 13 13
0 18 13 23 54 5 38 11 53 20 50 8 -4 14 7 17 30 6 56 -2 106 -18 106 -8 0 -19
11 -24 24 -5 13 -15 26 -22 29 -9 3 -8 9 7 20 15 12 19 26 19 71 -1 31 -3 58
-5 60 -9 10 -55 16 -65 9z"/>
<path d="M14030 8170 c0 -5 -6 -10 -14 -10 -14 0 -31 -73 -21 -90 3 -4 7 -40
9 -79 2 -39 8 -77 13 -84 13 -15 30 -92 38 -169 4 -32 10 -58 14 -58 5 0 12
-23 15 -52 4 -28 10 -56 13 -61 3 -6 7 -24 9 -41 11 -139 16 -183 21 -196 3
-8 7 -39 8 -69 2 -29 7 -56 12 -60 6 -3 10 -34 10 -68 0 -36 5 -68 12 -77 8
-9 11 -26 7 -41 -8 -30 3 -107 14 -100 4 3 14 -2 21 -11 10 -13 10 -17 -2 -24
-19 -13 -18 -118 2 -131 11 -8 11 -12 2 -16 -9 -3 -13 -26 -13 -63 0 -50 3
-61 21 -70 34 -19 66 -5 73 31 7 36 -3 111 -14 104 -4 -2 -5 29 -2 69 4 68 3
75 -18 86 -20 11 -20 12 -4 24 21 16 25 123 4 136 -8 5 -11 19 -6 41 3 19 1
50 -5 69 -6 19 -12 62 -13 95 -1 34 -6 67 -11 75 -5 8 -10 31 -11 50 -6 103
-18 196 -26 207 -5 7 -7 17 -4 22 8 12 -25 185 -36 189 -4 2 -8 12 -8 23 0 28
-29 149 -43 177 -6 13 -12 42 -12 65 -3 89 -5 97 -20 97 -8 0 -15 5 -15 10 0
6 -4 10 -10 10 -5 0 -10 -4 -10 -10z"/>
<path d="M2459 7940 c-16 -9 -17 -89 -13 -1007 3 -885 15 -1606 29 -1667 3
-12 7 -75 10 -141 7 -182 42 -295 92 -295 7 0 16 -13 19 -29 7 -32 28 -42 62
-30 20 7 22 15 22 73 0 57 -3 67 -22 78 -13 7 -27 12 -31 13 -22 1 -46 111
-48 220 -1 39 -5 138 -11 220 -11 183 -25 896 -32 1695 -3 327 -6 604 -7 615
0 11 0 57 1 102 1 91 -8 156 -21 147 -5 -3 -9 0 -9 5 0 13 -19 14 -41 1z"/>
<path d="M12148 6377 c-28 -22 -29 -137 -2 -137 12 0 15 -6 10 -22 -8 -35 4
-98 20 -98 8 0 14 -5 14 -11 0 -5 4 -7 10 -4 5 3 12 -12 16 -35 4 -22 11 -43
15 -46 5 -3 9 -16 9 -30 0 -13 6 -24 13 -24 8 0 20 -33 32 -90 10 -49 22 -90
26 -90 4 0 10 -20 13 -45 4 -25 11 -45 15 -45 9 0 21 -58 27 -134 2 -27 9 -53
15 -57 6 -4 9 -11 5 -17 -10 -16 5 -92 18 -92 6 0 11 -15 12 -32 0 -18 6 -69
13 -113 8 -44 15 -109 17 -144 1 -35 7 -67 12 -70 5 -3 9 -31 9 -61 -1 -30 3
-62 8 -70 6 -8 10 -41 10 -73 1 -38 6 -61 14 -67 9 -5 11 -17 7 -34 -6 -26 3
-110 12 -102 5 5 32 -19 32 -28 0 -3 -7 -6 -15 -6 -23 0 -21 -115 2 -128 12
-7 15 -18 10 -46 -10 -60 2 -104 29 -110 23 -6 34 -26 15 -26 -5 0 -11 -14
-15 -31 -6 -33 2 -109 13 -107 3 1 14 -2 23 -6 42 -19 72 36 61 110 -4 22 -13
34 -36 43 -23 10 -27 15 -16 18 31 8 34 125 3 137 -10 4 -11 13 -3 38 9 33 2
118 -10 116 -12 -2 -41 14 -41 23 0 5 7 9 15 9 12 0 15 13 15 59 0 33 -4 62
-9 65 -5 3 -9 32 -8 63 1 32 -3 65 -8 73 -6 8 -10 41 -11 74 -1 32 -6 61 -11
65 -6 3 -10 29 -9 56 0 28 -3 59 -8 70 -5 11 -11 47 -12 80 -2 33 -6 71 -7 85
-2 14 -5 37 -5 52 -1 15 -8 33 -14 40 -7 7 -14 32 -15 56 0 23 -6 48 -12 56
-6 7 -8 16 -4 19 3 4 0 35 -6 69 -25 124 -64 293 -71 303 -4 6 -16 45 -26 87
-11 43 -23 78 -28 78 -15 0 -35 34 -36 58 0 13 -4 20 -10 17 -5 -3 -12 11 -16
33 -5 31 -12 41 -36 50 -23 8 -29 16 -24 28 9 23 -4 105 -15 98 -5 -3 -9 0 -9
5 0 15 -21 13 -42 -2z"/>
<path d="M14269 6197 c-36 -27 -34 -123 2 -146 16 -10 26 -9 50 1 30 13 35 28
30 98 -3 52 -44 76 -82 47z"/>
<path d="M6770 5511 c0 -6 -7 -8 -15 -5 -8 4 -15 2 -15 -3 0 -6 -11 -15 -24
-21 -43 -19 -43 -128 0 -149 20 -9 27 -7 49 13 14 13 32 24 39 24 8 0 15 14
17 33 5 44 -4 102 -16 102 -5 0 -16 4 -22 8 -8 5 -13 4 -13 -2z"/>
<path d="M14403 5107 c-24 -12 -36 -61 -26 -109 12 -61 94 -59 107 2 8 41 -4
100 -20 100 -8 0 -14 5 -14 10 0 12 -18 11 -47 -3z"/>
<path d="M14438 4866 c-8 -6 -18 -23 -21 -38 -9 -33 2 -110 14 -103 4 3 10 1
14 -5 8 -13 55 -13 55 1 0 5 4 8 9 5 13 -8 23 58 15 98 -8 44 -53 66 -86 42z"/>
<path d="M5055 4784 c-15 -11 -19 -26 -19 -70 1 -34 6 -59 14 -64 9 -6 8 -10
-5 -17 -12 -7 -16 -23 -16 -67 0 -32 2 -60 4 -63 7 -6 66 -7 73 0 11 11 6 117
-6 132 -10 12 -10 15 2 15 18 0 31 62 21 100 -6 22 -29 49 -43 49 -3 0 -14 -6
-25 -15z"/>
<path d="M14489 4607 c-8 -7 -18 -23 -22 -37 -9 -36 3 -100 19 -100 8 0 14 -4
14 -9 0 -10 28 -8 68 4 15 5 23 16 24 34 3 45 -3 96 -12 105 -14 14 -73 16
-91 3z"/>
<path d="M8318 4428 c-20 -17 -29 -55 -22 -99 5 -27 12 -38 35 -46 22 -9 29
-18 29 -37 0 -30 49 -63 58 -38 2 7 7 10 12 7 12 -7 22 60 15 98 -5 23 -16 39
-36 51 -20 12 -29 25 -29 42 0 14 -4 23 -9 19 -5 -3 -12 -1 -16 5 -8 13 -18
13 -37 -2z"/>
<path d="M14558 4338 c-36 -30 -32 -126 7 -144 15 -7 27 -8 33 -2 6 6 12 6 16
0 4 -7 14 -6 30 1 44 21 43 130 -1 150 -19 8 -26 8 -32 -2 -6 -9 -11 -10 -15
-2 -9 14 -19 14 -38 -1z"/>
<path d="M12623 4113 c-20 -13 -23 -25 -23 -74 0 -53 3 -61 24 -71 14 -6 33
-7 43 -3 10 5 21 8 24 7 11 -2 20 76 12 106 -6 27 -29 52 -48 51 -5 0 -20 -7
-32 -16z"/>
<path d="M14649 4067 c-8 -7 -18 -23 -22 -37 -9 -35 3 -100 18 -100 8 0 15 -6
18 -12 3 -10 7 -10 19 0 11 9 18 9 23 3 4 -7 15 -5 31 5 21 14 24 24 24 75 0
54 -2 60 -26 71 -20 9 -27 9 -33 -1 -6 -9 -11 -10 -15 -2 -9 14 -17 14 -37 -2z"/>
<path d="M8658 3963 c-12 -3 -18 -15 -19 -36 -2 -62 3 -92 17 -100 8 -4 14
-15 14 -23 0 -8 4 -13 9 -10 5 4 11 1 13 -6 4 -10 10 -10 30 -1 17 8 27 22 30
45 8 47 -2 98 -18 98 -8 0 -14 7 -14 15 0 8 -4 15 -9 15 -5 0 -15 2 -23 4 -7
2 -21 2 -30 -1z"/>
<path d="M12663 3937 c-23 -12 -36 -61 -27 -107 13 -64 102 -65 115 -1 11 55
1 95 -29 109 -29 14 -29 14 -59 -1z"/>
<path d="M14738 3796 c-8 -6 -17 -22 -21 -36 -9 -35 3 -100 18 -100 8 0 16 -6
18 -12 4 -10 8 -10 15 1 8 11 14 12 24 4 19 -16 44 5 52 44 8 37 -2 105 -15
97 -5 -3 -9 -1 -9 4 0 13 -64 11 -82 -2z"/>
<path d="M12703 3753 c-20 -13 -23 -24 -23 -74 0 -64 14 -81 61 -75 41 4 57
16 62 46 8 39 -3 100 -18 100 -8 0 -16 6 -19 13 -5 9 -7 9 -12 -1 -4 -8 -10
-10 -17 -3 -8 6 -20 3 -34 -6z"/>
<path d="M12770 3559 c0 -6 -4 -8 -9 -5 -12 8 -23 -68 -14 -102 8 -35 33 -54
51 -39 10 8 16 7 21 -2 13 -20 48 7 55 43 9 42 -3 93 -22 102 -27 12 -82 14
-82 3z"/>
<path d="M14830 3520 c0 -5 -6 -10 -14 -10 -31 0 -28 -122 3 -136 26 -12 81
-14 81 -3 0 6 4 8 9 5 5 -3 12 10 16 30 13 70 -20 138 -54 111 -11 -9 -15 -9
-18 1 -5 14 -23 16 -23 2z"/>
<path d="M12848 3366 c-8 -6 -18 -23 -21 -38 -9 -34 2 -110 14 -102 5 3 9 0 9
-5 0 -6 14 -11 30 -11 17 0 30 5 30 11 0 5 4 8 9 5 12 -8 22 65 15 102 -8 41
-55 61 -86 38z"/>
<path d="M14898 3226 c-8 -6 -17 -22 -21 -36 -9 -35 3 -100 18 -100 8 0 16 -6
18 -12 4 -10 8 -10 15 1 8 11 14 12 24 4 19 -16 44 5 52 44 8 37 -2 105 -15
97 -5 -3 -9 -1 -9 4 0 13 -64 11 -82 -2z"/>
<path d="M12910 3160 c0 -5 -6 -10 -14 -10 -16 0 -28 -59 -20 -100 8 -36 45
-57 77 -43 46 21 45 129 -1 151 -32 15 -42 15 -42 2z"/>
<path d="M14979 2926 c-9 -6 -18 -22 -22 -36 -9 -35 3 -100 18 -100 8 0 16 -6
18 -12 4 -10 8 -10 15 1 7 9 12 10 16 2 5 -7 15 -6 32 5 21 14 24 24 24 75 0
45 -4 60 -17 68 -24 12 -66 11 -84 -3z"/>
<path d="M12935 2734 c-15 -11 -20 -28 -21 -77 -2 -76 -1 -72 -17 -58 -8 6
-17 7 -21 3 -4 -4 -13 -7 -19 -7 -8 0 -13 -23 -15 -63 -3 -57 -1 -63 20 -71
13 -5 26 -7 30 -4 4 2 11 -14 14 -36 4 -23 10 -38 14 -36 5 3 10 -1 12 -7 4
-10 12 -10 34 -3 27 10 29 14 32 72 3 56 1 63 -20 74 -13 7 -30 13 -38 14 -17
0 -25 28 -15 53 5 14 8 14 15 2 7 -11 14 -12 34 -2 24 11 26 17 26 71 0 50 -3
61 -23 74 -20 13 -26 13 -42 1z"/>
<path d="M15049 2627 c-8 -7 -18 -23 -22 -37 -9 -36 3 -100 19 -100 8 0 14 -4
14 -10 0 -14 21 -13 52 2 42 20 48 115 10 146 -20 15 -52 15 -73 -1z"/>
<path d="M12905 2085 c-15 -12 -19 -27 -19 -68 0 -45 5 -57 32 -86 18 -18 32
-30 32 -26 0 4 7 2 15 -5 10 -8 15 -9 15 -2 0 6 7 9 15 6 11 -5 15 2 16 27 3
64 -3 104 -17 112 -8 4 -14 14 -14 22 0 14 -29 35 -47 35 -4 0 -17 -7 -28 -15z"/>
<path d="M1843 5861 c-35 -30 -43 -64 -42 -184 1 -62 4 -102 6 -89 5 23 36 31
48 11 4 -6 13 -8 21 -5 8 3 14 1 14 -4 0 -6 9 -10 19 -10 11 0 23 -5 26 -10 4
-6 10 -8 15 -5 5 3 11 1 15 -5 3 -5 15 -10 25 -10 13 0 23 -11 29 -32 8 -25
10 -2 8 97 l-3 130 -36 57 c-52 80 -97 99 -145 59z m98 -53 c5 -7 9 -9 9 -4 0
22 40 -30 54 -72 20 -57 22 -157 4 -145 -7 4 -17 8 -23 8 -5 1 -23 7 -40 15
-16 7 -32 14 -35 15 -91 31 -95 35 -98 101 -2 50 1 63 19 83 18 19 29 22 62
18 22 -3 44 -11 48 -19z"/>
<path d="M1826 4884 c-9 -8 -16 -25 -16 -37 0 -16 3 -18 12 -9 38 38 78 -17
78 -108 0 -53 -4 -58 -34 -35 -11 8 -28 15 -37 15 -15 0 -19 11 -22 58 -2 34
-4 17 -4 -43 -1 -68 1 -93 7 -77 11 27 11 27 54 3 19 -11 36 -17 39 -15 2 3
21 -4 41 -15 20 -12 37 -20 39 -19 10 8 36 -23 40 -47 2 -16 4 6 4 50 0 44 -2
70 -4 57 -4 -18 -9 -21 -31 -16 -15 4 -33 11 -39 17 -7 5 -13 6 -13 2 0 -4 -7
-2 -15 5 -18 15 -20 96 -3 107 18 10 52 10 60 -1 11 -16 37 13 44 49 6 34 -9
75 -27 75 -6 0 -3 -7 5 -16 9 -8 16 -24 16 -35 0 -16 -7 -19 -42 -19 -24 0
-49 -7 -59 -16 -16 -14 -18 -13 -24 18 -7 33 -31 68 -46 68 -4 0 -15 -7 -23
-16z"/>
</g>
</svg>
