<?xml version="1.0" standalone="yes"?>

<svg version="1.1" viewBox="0.0 0.0 960.0 720.0" fill="none" stroke="none" stroke-linecap="square" stroke-miterlimit="10" xmlns="http://www.w3.org/2000/svg" xmlns:xlink="http://www.w3.org/1999/xlink"><clipPath id="p.0"><path d="m0 0l960.0 0l0 720.0l-960.0 0l0 -720.0z" clip-rule="nonzero"></path></clipPath><g clip-path="url(#p.0)"><path fill="#000000" fill-opacity="0.0" d="m0 0l960.0 0l0 720.0l-960.0 0z" fill-rule="nonzero"></path><path fill="#000000" fill-opacity="0.0" d="m857.47504 192.98425c-21.574768 3.969818 -86.47156 32.96675 -129.44879 23.818893c-42.977234 -9.147858 -90.097534 -62.136475 -128.41467 -78.70604c-38.3172 -16.56955 -84.57349 -17.2594 -101.48822 -20.71128" fill-rule="nonzero"></path><path stroke="#000000" stroke-width="2.0" stroke-linejoin="round" stroke-linecap="butt" stroke-dasharray="8.0,6.0" d="m857.47504 192.98425c-21.574768 3.969818 -86.47156 32.96675 -129.44879 23.818893c-42.977234 -9.147858 -90.097534 -62.136475 -128.41467 -78.70604c-38.3172 -16.56955 -84.57349 -17.2594 -101.48822 -20.71128" fill-rule="nonzero"></path><path fill="#000000" fill-opacity="0.0" d="m142.91339 175.37796c22.78302 6.7313995 89.75108 26.925629 136.69815 40.388443c46.947083 13.462814 108.56561 31.930878 144.98425 40.388443c36.41864 8.457581 61.27298 8.630798 73.52756 10.356964" fill-rule="nonzero"></path><path stroke="#000000" stroke-width="2.0" stroke-linejoin="round" stroke-linecap="butt" stroke-dasharray="8.0,6.0" d="m142.91339 175.37796c22.78302 6.7313995 89.75108 26.925629 136.69815 40.388443c46.947083 13.462814 108.56561 31.930878 144.98425 40.388443c36.41864 8.457581 61.27298 8.630798 73.52756 10.356964" fill-rule="nonzero"></path><path fill="#000000" fill-opacity="0.0" d="m857.47504 348.32285c-21.402405 8.975494 -85.092285 33.14084 -128.41467 53.852997c-43.322388 20.712158 -92.68506 54.541138 -131.51965 70.41995c-38.834656 15.878845 -84.57355 20.710846 -101.48822 24.853027" fill-rule="nonzero"></path><path stroke="#000000" stroke-width="2.0" stroke-linejoin="round" stroke-linecap="butt" d="m857.47504 348.32285c-21.402405 8.975494 -85.092285 33.14084 -128.41467 53.852997c-43.322388 20.712158 -92.68506 54.541138 -131.51965 70.41995c-38.834656 15.878845 -84.57355 20.710846 -101.48822 24.853027" fill-rule="nonzero"></path><path fill="#000000" fill-opacity="0.0" d="m141.87665 374.2126c22.95581 11.046387 91.13298 63.17105 137.7349 66.27823c46.60193 3.1071777 105.80316 -38.314972 141.87665 -47.635162c36.073486 -9.320221 62.136932 -6.9050903 74.5643 -8.286102" fill-rule="nonzero"></path><path stroke="#000000" stroke-width="2.0" stroke-linejoin="round" stroke-linecap="butt" d="m141.87665 374.2126c22.95581 11.046387 91.13298 63.17105 137.7349 66.27823c46.60193 3.1071777 105.80316 -38.314972 141.87665 -47.635162c36.073486 -9.320221 62.136932 -6.9050903 74.5643 -8.286102" fill-rule="nonzero"></path><path fill="#000000" fill-opacity="0.0" d="m497.0866 79.068245l1.0393677 458.5197" fill-rule="nonzero"></path><path stroke="#000000" stroke-width="2.0" stroke-linejoin="round" stroke-linecap="butt" d="m497.0866 79.068245l1.0393677 458.5197" fill-rule="nonzero"></path><path fill="#cfe2f3" d="m406.22296 388.7179l4.1339417 -5.9407043l9.422638 6.5569153l9.422607 -6.5569153l4.1339417 5.9407043l-7.221039 5.024872l7.221039 5.0249023l-4.1339417 5.9407043l-9.422607 -6.5569153l-9.422638 6.5569153l-4.1339417 -5.9407043l7.221039 -5.0249023z" fill-rule="nonzero"></path><path stroke="#000000" stroke-width="2.0" stroke-linejoin="round" stroke-linecap="butt" d="m406.22296 388.7179l4.1339417 -5.9407043l9.422638 6.5569153l9.422607 -6.5569153l4.1339417 5.9407043l-7.221039 5.024872l7.221039 5.0249023l-4.1339417 5.9407043l-9.422607 -6.5569153l-9.422638 6.5569153l-4.1339417 -5.9407043l7.221039 -5.0249023z" fill-rule="nonzero"></path><path fill="#cfe2f3" d="m264.8109 435.78613l4.1339417 -5.9407043l9.422607 6.5569153l9.422607 -6.5569153l4.1339417 5.9407043l-7.221039 5.0249023l7.221039 5.0249023l-4.1339417 5.940674l-9.422607 -6.5569153l-9.422607 6.5569153l-4.1339417 -5.940674l7.221039 -5.0249023z" fill-rule="nonzero"></path><path stroke="#000000" stroke-width="2.0" stroke-linejoin="round" stroke-linecap="butt" d="m264.8109 435.78613l4.1339417 -5.9407043l9.422607 6.5569153l9.422607 -6.5569153l4.1339417 5.9407043l-7.221039 5.0249023l7.221039 5.0249023l-4.1339417 5.940674l-9.422607 -6.5569153l-9.422607 6.5569153l-4.1339417 -5.940674l7.221039 -5.0249023z" fill-rule="nonzero"></path><path fill="#cfe2f3" d="m585.27545 466.55777l4.133972 -5.940674l9.422607 6.556885l9.422607 -6.556885l4.133911 5.940674l-7.2210083 5.0249023l7.2210083 5.0249023l-4.133911 5.9407043l-9.422607 -6.5569153l-9.422607 6.5569153l-4.133972 -5.9407043l7.2210693 -5.0249023z" fill-rule="nonzero"></path><path stroke="#000000" stroke-width="2.0" stroke-linejoin="round" stroke-linecap="butt" d="m585.27545 466.55777l4.133972 -5.940674l9.422607 6.556885l9.422607 -6.556885l4.133911 5.940674l-7.2210083 5.0249023l7.2210083 5.0249023l-4.133911 5.9407043l-9.422607 -6.5569153l-9.422607 6.5569153l-4.133972 -5.9407043l7.2210693 -5.0249023z" fill-rule="nonzero"></path><path fill="#cfe2f3" d="m129.0445 368.3688l4.1339417 -5.9407043l9.422607 6.5569153l9.422623 -6.5569153l4.1339417 5.9407043l-7.221039 5.0249023l7.221039 5.0249023l-4.1339417 5.940674l-9.422623 -6.556885l-9.422607 6.556885l-4.1339417 -5.940674l7.221039 -5.0249023z" fill-rule="nonzero"></path><path stroke="#000000" stroke-width="2.0" stroke-linejoin="round" stroke-linecap="butt" d="m129.0445 368.3688l4.1339417 -5.9407043l9.422607 6.5569153l9.422623 -6.5569153l4.1339417 5.9407043l-7.221039 5.0249023l7.221039 5.0249023l-4.1339417 5.940674l-9.422623 -6.556885l-9.422607 6.556885l-4.1339417 -5.940674l7.221039 -5.0249023z" fill-rule="nonzero"></path><path fill="#cfe2f3" d="m713.5878 397.1457l4.133911 -5.940674l9.422607 6.556885l9.422607 -6.556885l4.133972 5.940674l-7.2210693 5.0249023l7.2210693 5.0249023l-4.133972 5.9407043l-9.422607 -6.5569153l-9.422607 6.5569153l-4.133911 -5.9407043l7.2210083 -5.0249023z" fill-rule="nonzero"></path><path stroke="#000000" stroke-width="2.0" stroke-linejoin="round" stroke-linecap="butt" d="m713.5878 397.1457l4.133911 -5.940674l9.422607 6.556885l9.422607 -6.556885l4.133972 5.940674l-7.2210693 5.0249023l7.2210693 5.0249023l-4.133972 5.9407043l-9.422607 -6.5569153l-9.422607 6.5569153l-4.133911 -5.9407043l7.2210083 -5.0249023z" fill-rule="nonzero"></path><path fill="#cfe2f3" d="m843.5038 344.44492l4.133972 -5.9407043l9.422607 6.5569153l9.422607 -6.5569153l4.133972 5.9407043l-7.2210693 5.0249023l7.2210693 5.0249023l-4.133972 5.940674l-9.422607 -6.556885l-9.422607 6.556885l-4.133972 -5.940674l7.2210693 -5.0249023z" fill-rule="nonzero"></path><path stroke="#000000" stroke-width="2.0" stroke-linejoin="round" stroke-linecap="butt" d="m843.5038 344.44492l4.133972 -5.9407043l9.422607 6.5569153l9.422607 -6.5569153l4.133972 5.9407043l-7.2210693 5.0249023l7.2210693 5.0249023l-4.133972 5.940674l-9.422607 -6.556885l-9.422607 6.556885l-4.133972 -5.940674l7.2210693 -5.0249023z" fill-rule="nonzero"></path><path fill="#cfe2f3" d="m586.4068 137.57742l0 0c0 -6.575226 5.5629883 -11.90551 12.425232 -11.90551l0 0c3.2953491 0 6.4557495 1.2543335 8.78595 3.487053c2.3301392 2.2327118 3.6392212 5.2609253 3.6392212 8.418457l0 0c0 6.575241 -5.5629272 11.905518 -12.425171 11.905518l0 0c-6.8622437 0 -12.425232 -5.3302765 -12.425232 -11.905518z" fill-rule="nonzero"></path><path stroke="#000000" stroke-width="2.0" stroke-linejoin="round" stroke-linecap="butt" d="m586.4068 137.57742l0 0c0 -6.575226 5.5629883 -11.90551 12.425232 -11.90551l0 0c3.2953491 0 6.4557495 1.2543335 8.78595 3.487053c2.3301392 2.2327118 3.6392212 5.2609253 3.6392212 8.418457l0 0c0 6.575241 -5.5629272 11.905518 -12.425171 11.905518l0 0c-6.8622437 0 -12.425232 -5.3302765 -12.425232 -11.905518z" fill-rule="nonzero"></path><path fill="#cfe2f3" d="m714.7192 216.17848l0 0c0 -6.575241 5.5629272 -11.905518 12.425171 -11.905518l0 0c3.2953491 0 6.4557495 1.2543335 8.78595 3.4870453c2.3302002 2.2327118 3.6392822 5.2609253 3.6392822 8.418472l0 0c0 6.575226 -5.5629883 11.905502 -12.425232 11.905502l0 0c-6.8622437 0 -12.425171 -5.3302765 -12.425171 -11.905502z" fill-rule="nonzero"></path><path stroke="#000000" stroke-width="2.0" stroke-linejoin="round" stroke-linecap="butt" d="m714.7192 216.17848l0 0c0 -6.575241 5.5629272 -11.905518 12.425171 -11.905518l0 0c3.2953491 0 6.4557495 1.2543335 8.78595 3.4870453c2.3302002 2.2327118 3.6392822 5.2609253 3.6392822 8.418472l0 0c0 6.575226 -5.5629883 11.905502 -12.425232 11.905502l0 0c-6.8622437 0 -12.425171 -5.3302765 -12.425171 -11.905502z" fill-rule="nonzero"></path><path fill="#cfe2f3" d="m844.6352 192.36745l0 0c0 -6.575226 5.5629272 -11.905502 12.425171 -11.905502l0 0c3.2953491 0 6.4557495 1.2543182 8.78595 3.4870453c2.3302002 2.2327118 3.6392212 5.2609253 3.6392212 8.418457l0 0c0 6.575241 -5.5629272 11.905518 -12.425171 11.905518l0 0c-6.8622437 0 -12.425171 -5.3302765 -12.425171 -11.905518z" fill-rule="nonzero"></path><path stroke="#000000" stroke-width="2.0" stroke-linejoin="round" stroke-linecap="butt" d="m844.6352 192.36745l0 0c0 -6.575226 5.5629272 -11.905502 12.425171 -11.905502l0 0c3.2953491 0 6.4557495 1.2543182 8.78595 3.4870453c2.3302002 2.2327118 3.6392212 5.2609253 3.6392212 8.418457l0 0c0 6.575241 -5.5629272 11.905518 -12.425171 11.905518l0 0c-6.8622437 0 -12.425171 -5.3302765 -12.425171 -11.905518z" fill-rule="nonzero"></path><path fill="#cfe2f3" d="m407.35434 255.99738l0 0c0 -6.575226 5.5629272 -11.905518 12.425201 -11.905518l0 0c3.2953491 0 6.4557495 1.2543335 8.785919 3.4870453c2.3302002 2.232727 3.6392517 5.2609406 3.6392517 8.418472l0 0c0 6.575226 -5.5629272 11.905518 -12.425171 11.905518l0 0c-6.862274 0 -12.425201 -5.3302917 -12.425201 -11.905518z" fill-rule="nonzero"></path><path stroke="#000000" stroke-width="2.0" stroke-linejoin="round" stroke-linecap="butt" d="m407.35434 255.99738l0 0c0 -6.575226 5.5629272 -11.905518 12.425201 -11.905518l0 0c3.2953491 0 6.4557495 1.2543335 8.785919 3.4870453c2.3302002 2.232727 3.6392517 5.2609406 3.6392517 8.418472l0 0c0 6.575226 -5.5629272 11.905518 -12.425171 11.905518l0 0c-6.862274 0 -12.425201 -5.3302917 -12.425201 -11.905518z" fill-rule="nonzero"></path><path fill="#cfe2f3" d="m265.94226 216.17848l0 0c0 -6.575241 5.562958 -11.905518 12.425201 -11.905518l0 0c3.2953491 0 6.4557495 1.2543335 8.785919 3.4870453c2.3302002 2.2327118 3.6392822 5.2609253 3.6392822 8.418472l0 0c0 6.575226 -5.562958 11.905502 -12.425201 11.905502l0 0c-6.8622437 0 -12.425201 -5.3302765 -12.425201 -11.905502z" fill-rule="nonzero"></path><path stroke="#000000" stroke-width="2.0" stroke-linejoin="round" stroke-linecap="butt" d="m265.94226 216.17848l0 0c0 -6.575241 5.562958 -11.905518 12.425201 -11.905518l0 0c3.2953491 0 6.4557495 1.2543335 8.785919 3.4870453c2.3302002 2.2327118 3.6392822 5.2609253 3.6392822 8.418472l0 0c0 6.575226 -5.562958 11.905502 -12.425201 11.905502l0 0c-6.8622437 0 -12.425201 -5.3302765 -12.425201 -11.905502z" fill-rule="nonzero"></path><path fill="#cfe2f3" d="m130.17586 176.36745l0 0c0 -6.575226 5.5629425 -11.905502 12.425186 -11.905502l0 0c3.2953796 0 6.455765 1.2543182 8.78595 3.4870453c2.3301697 2.2327118 3.6392517 5.2609253 3.6392517 8.418457l0 0c0 6.575241 -5.5629425 11.905518 -12.425201 11.905518l0 0c-6.8622437 0 -12.425186 -5.3302765 -12.425186 -11.905518z" fill-rule="nonzero"></path><path stroke="#000000" stroke-width="2.0" stroke-linejoin="round" stroke-linecap="butt" d="m130.17586 176.36745l0 0c0 -6.575226 5.5629425 -11.905502 12.425186 -11.905502l0 0c3.2953796 0 6.455765 1.2543182 8.78595 3.4870453c2.3301697 2.2327118 3.6392517 5.2609253 3.6392517 8.418457l0 0c0 6.575241 -5.5629425 11.905518 -12.425201 11.905518l0 0c-6.8622437 0 -12.425186 -5.3302765 -12.425186 -11.905518z" fill-rule="nonzero"></path><path fill="#000000" fill-opacity="0.0" d="m573.64307 417.1286l54.86615 0l0 47.055115l-54.86615 0z" fill-rule="nonzero"></path><path fill="#000000" d="m586.4868 444.0486l-3.609375 -13.59375l1.84375 0l2.0625 8.90625q0.34375 1.40625 0.578125 2.78125q0.515625 -2.171875 0.609375 -2.515625l2.59375 -9.171875l2.171875 0l1.953125 6.875q0.734375 2.5625 1.046875 4.8125q0.265625 -1.28125 0.6875 -2.953125l2.125 -8.734375l1.8125 0l-3.734375 13.59375l-1.734375 0l-2.859375 -10.359375q-0.359375 -1.296875 -0.421875 -1.59375q-0.21875 0.9375 -0.40625 1.59375l-2.890625 10.359375l-1.828125 0z" fill-rule="nonzero"></path><path fill="#000000" d="m600.6267 449.18924l1.03125 -0.15625q0.09375 0.625 0.484375 0.953125q0.40625 0.328125 1.140625 0.328125q0.71875 0 1.0625 -0.28125q0.359375 -0.296875 0.359375 -0.703125q0 -0.359375 -0.3125 -0.5625q-0.21875 -0.140625 -1.078125 -0.359375q-1.15625 -0.296875 -1.609375 -0.5q-0.4375 -0.21875 -0.671875 -0.59375q-0.234375 -0.375 -0.234375 -0.84375q0 -0.40625 0.1875 -0.765625q0.1875 -0.359375 0.515625 -0.59375q0.25 -0.171875 0.671875 -0.296875q0.421875 -0.125 0.921875 -0.125q0.71875 0 1.265625 0.21875q0.5625 0.203125 0.828125 0.5625q0.265625 0.359375 0.359375 0.953125l-1.03125 0.140625q-0.0625 -0.46875 -0.40625 -0.734375q-0.328125 -0.28125 -0.953125 -0.28125q-0.71875 0 -1.03125 0.25q-0.3125 0.234375 -0.3125 0.5625q0 0.203125 0.125 0.359375q0.140625 0.171875 0.40625 0.28125q0.15625 0.0625 0.9375 0.265625q1.125 0.3125 1.5625 0.5q0.4375 0.1875 0.6875 0.546875q0.25 0.359375 0.25 0.90625q0 0.53125 -0.3125 1.0q-0.296875 0.453125 -0.875 0.71875q-0.578125 0.25 -1.3125 0.25q-1.21875 0 -1.859375 -0.5q-0.625 -0.515625 -0.796875 -1.5zm6.640503 4.25l0 -8.609375l0.953125 0l0 0.796875q0.34375 -0.46875 0.765625 -0.703125q0.4375 -0.234375 1.046875 -0.234375q0.796875 0 1.40625 0.40625q0.609375 0.40625 0.90625 1.15625q0.3125 0.75 0.3125 1.640625q0 0.953125 -0.34375 1.71875q-0.328125 0.765625 -0.984375 1.171875q-0.65625 0.40625 -1.375 0.40625q-0.53125 0 -0.953125 -0.21875q-0.421875 -0.234375 -0.6875 -0.5625l0 3.03125l-1.046875 0zm0.953125 -5.46875q0 1.203125 0.484375 1.78125q0.484375 0.5625 1.171875 0.5625q0.703125 0 1.203125 -0.59375q0.5 -0.59375 0.5 -1.84375q0 -1.1875 -0.484375 -1.765625q-0.484375 -0.59375 -1.171875 -0.59375q-0.671875 0 -1.1875 0.625q-0.515625 0.625 -0.515625 1.828125z" fill-rule="nonzero"></path><path fill="#000000" fill-opacity="0.0" d="m564.98425 79.068245l92.629944 0l0 47.055115l-92.629944 0z" fill-rule="nonzero"></path><path fill="#000000" d="m575.54675 105.98824l0 -13.59375l9.171875 0l0 1.59375l-7.375 0l0 4.21875l6.375 0l0 1.609375l-6.375 0l0 6.171875l-1.796875 0zm14.270996 4.0q-1.375 -1.75 -2.328125 -4.078125q-0.953125 -2.34375 -0.953125 -4.84375q0 -2.21875 0.703125 -4.234375q0.84375 -2.34375 2.578125 -4.671875l1.203125 0q-1.125 1.921875 -1.484375 2.75q-0.5625 1.28125 -0.890625 2.671875q-0.40625 1.734375 -0.40625 3.484375q0 4.46875 2.78125 8.921875l-1.203125 0zm5.6188965 -4.0l-3.609375 -13.59375l1.84375 0l2.0625 8.90625q0.34375 1.40625 0.578125 2.78125q0.515625 -2.171875 0.609375 -2.515625l2.59375 -9.171875l2.171875 0l1.953125 6.875q0.734375 2.5625 1.046875 4.8125q0.265625 -1.28125 0.6875 -2.953125l2.125 -8.734375l1.8125 0l-3.734375 13.59375l-1.734375 0l-2.859375 -10.359375q-0.359375 -1.296875 -0.421875 -1.59375q-0.21875 0.9375 -0.40625 1.59375l-2.890625 10.359375l-1.828125 0z" fill-rule="nonzero"></path><path fill="#000000" d="m609.57654 111.12887l1.03125 -0.15625q0.09375 0.625 0.484375 0.953125q0.40625 0.328125 1.140625 0.328125q0.71875 0 1.0625 -0.28125q0.359375 -0.296875 0.359375 -0.703125q0 -0.359375 -0.3125 -0.5625q-0.21875 -0.140625 -1.078125 -0.359375q-1.15625 -0.296875 -1.609375 -0.5q-0.4375 -0.21875 -0.671875 -0.59375q-0.234375 -0.375 -0.234375 -0.84375q0 -0.40625 0.1875 -0.765625q0.1875 -0.359375 0.515625 -0.59375q0.25 -0.171875 0.671875 -0.296875q0.421875 -0.125 0.921875 -0.125q0.71875 0 1.265625 0.21875q0.5625 0.203125 0.828125 0.5625q0.265625 0.359375 0.359375 0.953125l-1.03125 0.140625q-0.0625 -0.46875 -0.40625 -0.734375q-0.328125 -0.28125 -0.953125 -0.28125q-0.71875 0 -1.03125 0.25q-0.3125 0.234375 -0.3125 0.5625q0 0.203125 0.125 0.359375q0.140625 0.171875 0.40625 0.28125q0.15625 0.0625 0.9375 0.265625q1.125 0.3125 1.5625 0.5q0.4375 0.1875 0.6875 0.546875q0.25 0.359375 0.25 0.90625q0 0.53125 -0.3125 1.0q-0.296875 0.453125 -0.875 0.71875q-0.578125 0.25 -1.3125 0.25q-1.21875 0 -1.859375 -0.5q-0.625 -0.515625 -0.796875 -1.5zm6.640564 4.25l0 -8.609375l0.953125 0l0 0.796875q0.34375 -0.46875 0.765625 -0.703125q0.4375 -0.234375 1.046875 -0.234375q0.796875 0 1.40625 0.40625q0.609375 0.40625 0.90625 1.15625q0.3125 0.75 0.3125 1.640625q0 0.953125 -0.34375 1.71875q-0.328125 0.765625 -0.984375 1.171875q-0.65625 0.40625 -1.375 0.40625q-0.53125 0 -0.953125 -0.21875q-0.421875 -0.234375 -0.6875 -0.5625l0 3.03125l-1.046875 0zm0.953125 -5.46875q0 1.203125 0.484375 1.78125q0.484375 0.5625 1.171875 0.5625q0.703125 0 1.203125 -0.59375q0.5 -0.59375 0.5 -1.84375q0 -1.1875 -0.484375 -1.765625q-0.484375 -0.59375 -1.171875 -0.59375q-0.671875 0 -1.1875 0.625q-0.515625 0.625 -0.515625 1.828125z" fill-rule="nonzero"></path><path fill="#000000" d="m624.681 109.98824l-1.1875 0q2.765625 -4.453125 2.765625 -8.921875q0 -1.734375 -0.390625 -3.453125q-0.328125 -1.390625 -0.890625 -2.671875q-0.359375 -0.84375 -1.484375 -2.78125l1.1875 0q1.75 2.328125 2.578125 4.671875q0.71875 2.015625 0.71875 4.234375q0 2.5 -0.96875 4.84375q-0.953125 2.328125 -2.328125 4.078125z" fill-rule="nonzero"></path><path fill="#ff9900" d="m484.67715 119.40157l0 0c0 -6.5752335 5.562958 -11.90551 12.425201 -11.90551l0 0c3.2953796 0 6.45578 1.2543259 8.78595 3.4870453c2.3301697 2.2327118 3.6392517 5.2609253 3.6392517 8.418465l0 0c0 6.5752335 -5.562958 11.90551 -12.425201 11.90551l0 0c-6.8622437 0 -12.425201 -5.3302765 -12.425201 -11.90551z" fill-rule="nonzero"></path><path stroke="#000000" stroke-width="2.0" stroke-linejoin="round" stroke-linecap="butt" d="m484.67715 119.40157l0 0c0 -6.5752335 5.562958 -11.90551 12.425201 -11.90551l0 0c3.2953796 0 6.45578 1.2543259 8.78595 3.4870453c2.3301697 2.2327118 3.6392517 5.2609253 3.6392517 8.418465l0 0c0 6.5752335 -5.562958 11.90551 -12.425201 11.90551l0 0c-6.8622437 0 -12.425201 -5.3302765 -12.425201 -11.90551z" fill-rule="nonzero"></path><path fill="#000000" fill-opacity="0.0" d="m446.8504 94.33071l69.82678 0l0 47.055107l-69.82678 0z" fill-rule="nonzero"></path><path fill="#000000" d="m457.4129 121.25071l0 -13.59375l9.171875 0l0 1.59375l-7.375 0l0 4.21875l6.375 0l0 1.609375l-6.375 0l0 6.171875l-1.796875 0z" fill-rule="nonzero"></path><path fill="#000000" d="m468.29324 128.2507l0 -5.4062424l-0.9375 0l0 -0.8125l0.9375 0l0 -0.671875q0 -0.625 0.109375 -0.921875q0.15625 -0.421875 0.53125 -0.671875q0.390625 -0.25 1.078125 -0.25q0.453125 0 0.984375 0.109375l-0.15625 0.90625q-0.328125 -0.046875 -0.625 -0.046875q-0.484375 0 -0.6875 0.203125q-0.1875 0.203125 -0.1875 0.765625l0 0.578125l1.21875 0l0 0.8125l-1.21875 0l0 5.4062424l-1.046875 0zm3.2054749 2.390625l0 -8.609367l0.953125 0l0 0.796875q0.34375 -0.46875 0.765625 -0.703125q0.4375 -0.234375 1.046875 -0.234375q0.796875 0 1.40625 0.40625q0.609375 0.40625 0.90625 1.15625q0.3125 0.75 0.3125 1.640625q0 0.953125 -0.34375 1.71875q-0.328125 0.765625 -0.984375 1.171875q-0.65625 0.40624237 -1.375 0.40624237q-0.53125 0 -0.953125 -0.21875q-0.421875 -0.23436737 -0.6875 -0.5624924l0 3.0312424l-1.046875 0zm0.953125 -5.4687424q0 1.203125 0.484375 1.78125q0.484375 0.5625 1.171875 0.5625q0.703125 0 1.203125 -0.59375q0.5 -0.59375 0.5 -1.84375q0 -1.1875 -0.484375 -1.765625q-0.484375 -0.59375 -1.171875 -0.59375q-0.671875 0 -1.1875 0.625q-0.515625 0.625 -0.515625 1.828125z" fill-rule="nonzero"></path><path fill="#ff9900" d="m484.67715 266.92126l0 0c0 -6.575226 5.562958 -11.905518 12.425201 -11.905518l0 0c3.2953796 0 6.45578 1.2543335 8.78595 3.48703c2.3301697 2.232727 3.6392517 5.260956 3.6392517 8.418488l0 0c0 6.575226 -5.562958 11.905518 -12.425201 11.905518l0 0c-6.8622437 0 -12.425201 -5.3302917 -12.425201 -11.905518z" fill-rule="nonzero"></path><path stroke="#000000" stroke-width="2.0" stroke-linejoin="round" stroke-linecap="butt" d="m484.67715 266.92126l0 0c0 -6.575226 5.562958 -11.905518 12.425201 -11.905518l0 0c3.2953796 0 6.45578 1.2543335 8.78595 3.48703c2.3301697 2.232727 3.6392517 5.260956 3.6392517 8.418488l0 0c0 6.575226 -5.562958 11.905518 -12.425201 11.905518l0 0c-6.8622437 0 -12.425201 -5.3302917 -12.425201 -11.905518z" fill-rule="nonzero"></path><path fill="#0000ff" d="m483.5458 383.21658l4.1339417 -5.9407043l9.422607 6.5569153l9.422607 -6.5569153l4.1339417 5.9407043l-7.221039 5.024872l7.221039 5.0249023l-4.1339417 5.9407043l-9.422607 -6.5569153l-9.422607 6.5569153l-4.1339417 -5.9407043l7.221039 -5.0249023z" fill-rule="nonzero"></path><path stroke="#000000" stroke-width="2.0" stroke-linejoin="round" stroke-linecap="butt" d="m483.5458 383.21658l4.1339417 -5.9407043l9.422607 6.5569153l9.422607 -6.5569153l4.1339417 5.9407043l-7.221039 5.024872l7.221039 5.0249023l-4.1339417 5.9407043l-9.422607 -6.5569153l-9.422607 6.5569153l-4.1339417 -5.9407043l7.221039 -5.0249023z" fill-rule="nonzero"></path><path fill="#0000ff" d="m483.5458 492.0171l4.1339417 -5.940674l9.422607 6.556885l9.422607 -6.556885l4.1339417 5.940674l-7.221039 5.0249023l7.221039 5.0249023l-4.1339417 5.9407043l-9.422607 -6.5569153l-9.422607 6.5569153l-4.1339417 -5.9407043l7.221039 -5.0249023z" fill-rule="nonzero"></path><path stroke="#000000" stroke-width="2.0" stroke-linejoin="round" stroke-linecap="butt" d="m483.5458 492.0171l4.1339417 -5.940674l9.422607 6.556885l9.422607 -6.556885l4.1339417 5.940674l-7.221039 5.0249023l7.221039 5.0249023l-4.1339417 5.9407043l-9.422607 -6.5569153l-9.422607 6.5569153l-4.1339417 -5.9407043l7.221039 -5.0249023z" fill-rule="nonzero"></path><path fill="#000000" fill-opacity="0.0" d="m511.2126 358.00787l54.86615 0l0 47.055115l-54.86615 0z" fill-rule="nonzero"></path><path fill="#000000" d="m524.05634 384.9279l-3.609375 -13.59375l1.84375 0l2.0625 8.90625q0.34375 1.40625 0.578125 2.78125q0.515625 -2.171875 0.609375 -2.515625l2.59375 -9.171875l2.171875 0l1.953125 6.875q0.734375 2.5625 1.046875 4.8125q0.265625 -1.28125 0.6875 -2.953125l2.125 -8.734375l1.8125 0l-3.734375 13.59375l-1.734375 0l-2.859375 -10.359375q-0.359375 -1.296875 -0.421875 -1.59375q-0.21875 0.9375 -0.40625 1.59375l-2.890625 10.359375l-1.828125 0z" fill-rule="nonzero"></path><path fill="#000000" d="m538.58685 377.9279l0 -8.59375l1.0625 0l0 8.59375l-1.0625 0z" fill-rule="nonzero"></path><path fill="#000000" d="m541.6313 391.9279l0 -5.40625l-0.9375 0l0 -0.8125l0.9375 0l0 -0.671875q0 -0.625 0.109375 -0.921875q0.15625 -0.421875 0.53125 -0.671875q0.390625 -0.25 1.078125 -0.25q0.453125 0 0.984375 0.109375l-0.15625 0.90625q-0.328125 -0.046875 -0.625 -0.046875q-0.484375 0 -0.6875 0.203125q-0.1875 0.203125 -0.1875 0.765625l0 0.578125l1.21875 0l0 0.8125l-1.21875 0l0 5.40625l-1.046875 0zm3.2055054 2.390625l0 -8.609375l0.953125 0l0 0.796875q0.34375 -0.46875 0.765625 -0.703125q0.4375 -0.234375 1.046875 -0.234375q0.796875 0 1.40625 0.40625q0.609375 0.40625 0.90625 1.15625q0.3125 0.75 0.3125 1.640625q0 0.953125 -0.34375 1.71875q-0.328125 0.765625 -0.984375 1.171875q-0.65625 0.40625 -1.375 0.40625q-0.53125 0 -0.953125 -0.21875q-0.421875 -0.234375 -0.6875 -0.5625l0 3.03125l-1.046875 0zm0.953125 -5.46875q0 1.203125 0.484375 1.78125q0.484375 0.5625 1.171875 0.5625q0.703125 0 1.203125 -0.59375q0.5 -0.59375 0.5 -1.84375q0 -1.1875 -0.484375 -1.765625q-0.484375 -0.59375 -1.171875 -0.59375q-0.671875 0 -1.1875 0.625q-0.515625 0.625 -0.515625 1.828125z" fill-rule="nonzero"></path><path fill="#000000" fill-opacity="0.0" d="m512.8478 180.46194l119.90552 0l0 47.055115l-119.90552 0z" fill-rule="nonzero"></path><path fill="#000000" d="m523.4103 207.38194l0 -13.59375l9.171875 0l0 1.59375l-7.375 0l0 4.21875l6.375 0l0 1.609375l-6.375 0l0 6.171875l-1.796875 0zm10.427246 -11.109375l0.421875 -1.3125q1.484375 0.515625 2.140625 0.90625q-0.171875 -1.6875 -0.171875 -2.3125l1.34375 0q-0.03125 0.90625 -0.21875 2.296875q0.953125 -0.484375 2.1875 -0.890625l0.421875 1.3125q-1.171875 0.390625 -2.296875 0.53125q0.5625 0.484375 1.59375 1.75l-1.109375 0.78125q-0.546875 -0.734375 -1.28125 -1.984375q-0.6875 1.296875 -1.203125 1.984375l-1.09375 -0.78125q1.078125 -1.328125 1.53125 -1.75q-1.1875 -0.234375 -2.265625 -0.53125zm11.104004 15.109375q-1.375 -1.75 -2.328125 -4.078125q-0.953125 -2.34375 -0.953125 -4.84375q0 -2.21875 0.703125 -4.234375q0.84375 -2.34375 2.578125 -4.671875l1.203125 0q-1.125 1.921875 -1.484375 2.75q-0.5625 1.28125 -0.890625 2.671875q-0.40625 1.734375 -0.40625 3.484375q0 4.46875 2.78125 8.921875l-1.203125 0zm5.6188965 -4.0l-3.609375 -13.59375l1.84375 0l2.0625 8.90625q0.34375 1.40625 0.578125 2.78125q0.515625 -2.171875 0.609375 -2.515625l2.59375 -9.171875l2.171875 0l1.953125 6.875q0.734375 2.5625 1.046875 4.8125q0.265625 -1.28125 0.6875 -2.953125l2.125 -8.734375l1.8125 0l-3.734375 13.59375l-1.734375 0l-2.859375 -10.359375q-0.359375 -1.296875 -0.421875 -1.59375q-0.21875 0.9375 -0.40625 1.59375l-2.890625 10.359375l-1.828125 0z" fill-rule="nonzero"></path><path fill="#000000" d="m565.091 200.38194l0 -8.59375l1.0625 0l0 8.59375l-1.0625 0z" fill-rule="nonzero"></path><path fill="#000000" d="m568.1354 214.38194l0 -5.40625l-0.9375 0l0 -0.8125l0.9375 0l0 -0.671875q0 -0.625 0.109375 -0.921875q0.15625 -0.421875 0.53125 -0.671875q0.390625 -0.25 1.078125 -0.25q0.453125 0 0.984375 0.109375l-0.15625 0.90625q-0.328125 -0.046875 -0.625 -0.046875q-0.484375 0 -0.6875 0.203125q-0.1875 0.203125 -0.1875 0.765625l0 0.578125l1.21875 0l0 0.8125l-1.21875 0l0 5.40625l-1.046875 0zm3.2055054 2.390625l0 -8.609375l0.953125 0l0 0.796875q0.34375 -0.46875 0.765625 -0.703125q0.4375 -0.234375 1.046875 -0.234375q0.796875 0 1.40625 0.40625q0.609375 0.40625 0.90625 1.15625q0.3125 0.75 0.3125 1.640625q0 0.953125 -0.34375 1.71875q-0.328125 0.765625 -0.984375 1.171875q-0.65625 0.40625 -1.375 0.40625q-0.53125 0 -0.953125 -0.21875q-0.421875 -0.234375 -0.6875 -0.5625l0 3.03125l-1.046875 0zm0.953125 -5.46875q0 1.203125 0.484375 1.78125q0.484375 0.5625 1.171875 0.5625q0.703125 0 1.203125 -0.59375q0.5 -0.59375 0.5 -1.84375q0 -1.1875 -0.484375 -1.765625q-0.484375 -0.59375 -1.171875 -0.59375q-0.671875 0 -1.1875 0.625q-0.515625 0.625 -0.515625 1.828125z" fill-rule="nonzero"></path><path fill="#000000" d="m579.14856 207.38194l0 -1.90625l1.90625 0l0 1.90625q0 1.046875 -0.375 1.6875q-0.375 0.65625 -1.171875 1.0l-0.46875 -0.71875q0.53125 -0.21875 0.78125 -0.671875q0.25 -0.453125 0.28125 -1.296875l-0.953125 0zm7.3395386 0l-3.609375 -13.59375l1.84375 0l2.0625 8.90625q0.34375 1.40625 0.578125 2.78125q0.515625 -2.171875 0.609375 -2.515625l2.59375 -9.171875l2.171875 0l1.953125 6.875q0.734375 2.5625 1.046875 4.8125q0.265625 -1.28125 0.6875 -2.953125l2.125 -8.734375l1.8125 0l-3.734375 13.59375l-1.734375 0l-2.859375 -10.359375q-0.359375 -1.296875 -0.421875 -1.59375q-0.21875 0.9375 -0.40625 1.59375l-2.890625 10.359375l-1.828125 0z" fill-rule="nonzero"></path><path fill="#000000" d="m601.03424 200.38194l0 -6.21875l0.953125 0l0 0.9375q0.359375 -0.65625 0.65625 -0.859375q0.3125 -0.21875 0.6875 -0.21875q0.53125 0 1.078125 0.328125l-0.359375 0.984375q-0.390625 -0.234375 -0.765625 -0.234375q-0.359375 0 -0.640625 0.21875q-0.265625 0.203125 -0.375 0.578125q-0.1875 0.5625 -0.1875 1.21875l0 3.265625l-1.046875 0z" fill-rule="nonzero"></path><path fill="#000000" d="m605.4416 214.38194l0 -5.40625l-0.9375 0l0 -0.8125l0.9375 0l0 -0.671875q0 -0.625 0.109375 -0.921875q0.15625 -0.421875 0.53125 -0.671875q0.390625 -0.25 1.078125 -0.25q0.453125 0 0.984375 0.109375l-0.15625 0.90625q-0.328125 -0.046875 -0.625 -0.046875q-0.484375 0 -0.6875 0.203125q-0.1875 0.203125 -0.1875 0.765625l0 0.578125l1.21875 0l0 0.8125l-1.21875 0l0 5.40625l-1.046875 0zm3.2055054 2.390625l0 -8.609375l0.953125 0l0 0.796875q0.34375 -0.46875 0.765625 -0.703125q0.4375 -0.234375 1.046875 -0.234375q0.796875 0 1.40625 0.40625q0.609375 0.40625 0.90625 1.15625q0.3125 0.75 0.3125 1.640625q0 0.953125 -0.34375 1.71875q-0.328125 0.765625 -0.984375 1.171875q-0.65625 0.40625 -1.375 0.40625q-0.53125 0 -0.953125 -0.21875q-0.421875 -0.234375 -0.6875 -0.5625l0 3.03125l-1.046875 0zm0.953125 -5.46875q0 1.203125 0.484375 1.78125q0.484375 0.5625 1.171875 0.5625q0.703125 0 1.203125 -0.59375q0.5 -0.59375 0.5 -1.84375q0 -1.1875 -0.484375 -1.765625q-0.484375 -0.59375 -1.171875 -0.59375q-0.671875 0 -1.1875 0.625q-0.515625 0.625 -0.515625 1.828125z" fill-rule="nonzero"></path><path fill="#000000" d="m617.111 211.38194l-1.1875 0q2.765625 -4.453125 2.765625 -8.921875q0 -1.734375 -0.390625 -3.453125q-0.328125 -1.390625 -0.890625 -2.671875q-0.359375 -0.84375 -1.484375 -2.78125l1.1875 0q1.75 2.328125 2.578125 4.671875q0.71875 2.015625 0.71875 4.234375q0 2.5 -0.96875 4.84375q-0.953125 2.328125 -2.328125 4.078125z" fill-rule="nonzero"></path><path fill="#000000" fill-opacity="0.0" d="m439.35434 473.51443l54.86612 0l0 47.055145l-54.86612 0z" fill-rule="nonzero"></path><path fill="#000000" d="m452.1981 500.43445l-3.609375 -13.59375l1.84375 0l2.0625 8.90625q0.34375 1.40625 0.578125 2.78125q0.515625 -2.171875 0.609375 -2.515625l2.59375 -9.171875l2.171875 0l1.953125 6.875q0.734375 2.5625 1.046875 4.8125q0.265625 -1.28125 0.6875 -2.953125l2.125 -8.734375l1.8125 0l-3.734375 13.59375l-1.734375 0l-2.859375 -10.359375q-0.359375 -1.296875 -0.421875 -1.59375q-0.21875 0.9375 -0.40625 1.59375l-2.890625 10.359375l-1.828125 0z" fill-rule="nonzero"></path><path fill="#000000" d="m466.74423 493.43445l0 -6.21875l0.953125 0l0 0.9375q0.359375 -0.65625 0.65625 -0.859375q0.3125 -0.21875 0.6875 -0.21875q0.53125 0 1.078125 0.328125l-0.359375 0.984375q-0.390625 -0.234375 -0.765625 -0.234375q-0.359375 0 -0.640625 0.21875q-0.265625 0.203125 -0.375 0.578125q-0.1875 0.5625 -0.1875 1.21875l0 3.265625l-1.046875 0z" fill-rule="nonzero"></path><path fill="#000000" d="m471.15158 507.43445l0 -5.40625l-0.9375 0l0 -0.8125l0.9375 0l0 -0.671875q0 -0.625 0.109375 -0.921875q0.15625 -0.421875 0.53125 -0.671875q0.390625 -0.25 1.078125 -0.25q0.453125 0 0.984375 0.109375l-0.15625 0.90625q-0.328125 -0.046875 -0.625 -0.046875q-0.484375 0 -0.6875 0.203125q-0.1875 0.203125 -0.1875 0.765625l0 0.578125l1.21875 0l0 0.8125l-1.21875 0l0 5.40625l-1.046875 0zm3.2054749 2.390625l0 -8.609375l0.953125 0l0 0.796875q0.34375 -0.46875 0.765625 -0.703125q0.4375 -0.234375 1.046875 -0.234375q0.796875 0 1.40625 0.40625q0.609375 0.40625 0.90625 1.15625q0.3125 0.75 0.3125 1.640625q0 0.953125 -0.34375 1.71875q-0.328125 0.765625 -0.984375 1.171875q-0.65625 0.40625 -1.375 0.40625q-0.53125 0 -0.953125 -0.21875q-0.421875 -0.234375 -0.6875 -0.5625l0 3.03125l-1.046875 0zm0.953125 -5.46875q0 1.203125 0.484375 1.78125q0.484375 0.5625 1.171875 0.5625q0.703125 0 1.203125 -0.59375q0.5 -0.59375 0.5 -1.84375q0 -1.1875 -0.484375 -1.765625q-0.484375 -0.59375 -1.171875 -0.59375q-0.671875 0 -1.1875 0.625q-0.515625 0.625 -0.515625 1.828125z" fill-rule="nonzero"></path><path fill="#000000" fill-opacity="0.0" d="m512.8478 243.3937l69.82678 0l0 47.055115l-69.82678 0z" fill-rule="nonzero"></path><path fill="#000000" d="m523.4103 270.3137l0 -13.59375l9.171875 0l0 1.59375l-7.375 0l0 4.21875l6.375 0l0 1.609375l-6.375 0l0 6.171875l-1.796875 0z" fill-rule="nonzero"></path><path fill="#000000" d="m534.29065 277.3137l0 -5.40625l-0.9375 0l0 -0.8125l0.9375 0l0 -0.671875q0 -0.625 0.109375 -0.921875q0.15625 -0.421875 0.53125 -0.671875q0.390625 -0.25 1.078125 -0.25q0.453125 0 0.984375 0.109375l-0.15625 0.90625q-0.328125 -0.046875 -0.625 -0.046875q-0.484375 0 -0.6875 0.203125q-0.1875 0.203125 -0.1875 0.765625l0 0.578125l1.21875 0l0 0.8125l-1.21875 0l0 5.40625l-1.046875 0zm3.2054443 2.390625l0 -8.609375l0.953125 0l0 0.796875q0.34375 -0.46875 0.765625 -0.703125q0.4375 -0.234375 1.046875 -0.234375q0.796875 0 1.40625 0.40625q0.609375 0.40625 0.90625 1.15625q0.3125 0.75 0.3125 1.640625q0 0.953125 -0.34375 1.71875q-0.328125 0.765625 -0.984375 1.171875q-0.65625 0.40625 -1.375 0.40625q-0.53125 0 -0.953125 -0.21875q-0.421875 -0.234375 -0.6875 -0.5625l0 3.03125l-1.046875 0zm0.953125 -5.46875q0 1.203125 0.484375 1.78125q0.484375 0.5625 1.171875 0.5625q0.703125 0 1.203125 -0.59375q0.5 -0.59375 0.5 -1.84375q0 -1.1875 -0.484375 -1.765625q-0.484375 -0.59375 -1.171875 -0.59375q-0.671875 0 -1.1875 0.625q-0.515625 0.625 -0.515625 1.828125z" fill-rule="nonzero"></path><path fill="#000000" fill-opacity="0.0" d="m497.0866 197.20341c16.74237 -4.1644897 62.65442 -30.833344 100.4541 -24.986877c37.79962 5.846451 83.19379 57.10936 126.34381 60.065613c43.150024 2.956253 110.463684 -35.273407 132.5564 -42.32808" fill-rule="nonzero"></path><path stroke="#ff0000" stroke-width="4.0" stroke-linejoin="round" stroke-linecap="butt" stroke-dasharray="4.0,12.0" d="m497.0866 197.20341c16.74237 -4.1644897 62.65442 -30.833344 100.4541 -24.986877c37.79962 5.846451 83.19379 57.10936 126.34381 60.065613c43.150024 2.956253 110.463684 -35.273407 132.5564 -42.32808" fill-rule="nonzero"></path><path fill="#000000" fill-opacity="0.0" d="m497.0866 198.93964c-13.635162 13.807953 -45.91031 85.26422 -81.811005 82.84778c-35.900726 -2.4164734 -88.0267 -79.91383 -133.5932 -97.346466c-45.566483 -17.432632 -116.50481 -6.0411224 -139.80576 -7.249344" fill-rule="nonzero"></path><path stroke="#ff0000" stroke-width="4.0" stroke-linejoin="round" stroke-linecap="butt" stroke-dasharray="4.0,12.0" d="m497.0866 198.93964c-13.635162 13.807953 -45.91031 85.26422 -81.811005 82.84778c-35.900726 -2.4164734 -88.0267 -79.91383 -133.5932 -97.346466c-45.566483 -17.432632 -116.50481 -6.0411224 -139.80576 -7.249344" fill-rule="nonzero"></path><path fill="#ffff00" d="m484.6772 195.39026l9.492035 6.1035156E-5l2.933136 -9.095047l2.933136 9.095047l9.492035 -6.1035156E-5l-7.6792603 5.6209717l2.9332886 9.095001l-7.679199 -5.6210785l-7.6791687 5.6210785l2.933258 -9.095001z" fill-rule="nonzero"></path><path stroke="#000000" stroke-width="2.0" stroke-linejoin="round" stroke-linecap="butt" d="m484.6772 195.39026l9.492035 6.1035156E-5l2.933136 -9.095047l2.933136 9.095047l9.492035 -6.1035156E-5l-7.6792603 5.6209717l2.9332886 9.095001l-7.679199 -5.6210785l-7.6791687 5.6210785l2.933258 -9.095001z" fill-rule="nonzero"></path><path fill="#000000" fill-opacity="0.0" d="m540.2126 573.2546l177.10236 0" fill-rule="nonzero"></path><path stroke="#000000" stroke-width="2.0" stroke-linejoin="round" stroke-linecap="butt" d="m540.2126 573.2546l177.10236 0" fill-rule="nonzero"></path><path fill="#000000" fill-opacity="0.0" d="m540.2126 605.2546l177.10236 0" fill-rule="nonzero"></path><path stroke="#000000" stroke-width="2.0" stroke-linejoin="round" stroke-linecap="butt" stroke-dasharray="8.0,6.0" d="m540.2126 605.2546l177.10236 0" fill-rule="nonzero"></path><path fill="#000000" fill-opacity="0.0" d="m542.28345 635.0026l177.10242 0" fill-rule="nonzero"></path><path stroke="#ff0000" stroke-width="4.0" stroke-linejoin="round" stroke-linecap="butt" stroke-dasharray="4.0,12.0" d="m542.28345 635.0026l177.10242 0" fill-rule="nonzero"></path><path fill="#000000" fill-opacity="0.0" d="m738.021 602.21783l384.0 0l0 48.0l-384.0 0z" fill-rule="nonzero"></path><path fill="#000000" fill-opacity="0.0" d="m721.46454 549.2546l92.629944 0l0 48.0l-92.629944 0z" fill-rule="nonzero"></path><path fill="#000000" d="m731.3239 571.7996l1.6875 -0.140625q0.125 1.015625 0.5625 1.671875q0.4375 0.65625 1.359375 1.0625q0.9375 0.40625 2.09375 0.40625q1.03125 0 1.8125 -0.3125q0.796875 -0.3125 1.1875 -0.84375q0.390625 -0.53125 0.390625 -1.15625q0 -0.640625 -0.375 -1.109375q-0.375 -0.484375 -1.234375 -0.8125q-0.546875 -0.21875 -2.421875 -0.65625q-1.875 -0.453125 -2.625 -0.859375q-0.96875 -0.515625 -1.453125 -1.265625q-0.46875 -0.75 -0.46875 -1.6875q0 -1.03125 0.578125 -1.921875q0.59375 -0.90625 1.703125 -1.359375q1.125 -0.46875 2.5 -0.46875q1.515625 0 2.671875 0.484375q1.15625 0.484375 1.765625 1.4375q0.625 0.9375 0.671875 2.140625l-1.71875 0.125q-0.140625 -1.28125 -0.953125 -1.9375q-0.796875 -0.671875 -2.359375 -0.671875q-1.625 0 -2.375 0.609375q-0.75 0.59375 -0.75 1.4375q0 0.734375 0.53125 1.203125q0.515625 0.46875 2.703125 0.96875q2.203125 0.5 3.015625 0.875q1.1875 0.546875 1.75 1.390625q0.578125 0.828125 0.578125 1.921875q0 1.09375 -0.625 2.0625q-0.625 0.953125 -1.796875 1.484375q-1.15625 0.53125 -2.609375 0.53125q-1.84375 0 -3.09375 -0.53125q-1.25 -0.546875 -1.96875 -1.625q-0.703125 -1.078125 -0.734375 -2.453125zm12.2092285 -0.546875q0 -2.734375 1.53125 -4.0625q1.265625 -1.09375 3.09375 -1.09375q2.03125 0 3.3125 1.34375q1.296875 1.328125 1.296875 3.671875q0 1.90625 -0.578125 3.0q-0.5625 1.078125 -1.65625 1.6875q-1.078125 0.59375 -2.375 0.59375q-2.0625 0 -3.34375 -1.328125q-1.28125 -1.328125 -1.28125 -3.8125zm1.71875 0q0 1.890625 0.828125 2.828125q0.828125 0.9375 2.078125 0.9375q1.25 0 2.0625 -0.9375q0.828125 -0.953125 0.828125 -2.890625q0 -1.828125 -0.828125 -2.765625q-0.828125 -0.9375 -2.0625 -0.9375q-1.25 0 -2.078125 0.9375q-0.828125 0.9375 -0.828125 2.828125zm9.250732 4.921875l0 -13.59375l1.671875 0l0 13.59375l-1.671875 0zm10.62915 0l0 -1.453125q-1.140625 1.671875 -3.125 1.671875q-0.859375 0 -1.625 -0.328125q-0.75 -0.34375 -1.125 -0.84375q-0.359375 -0.5 -0.515625 -1.234375q-0.09375 -0.5 -0.09375 -1.5625l0 -6.109375l1.671875 0l0 5.46875q0 1.3125 0.09375 1.765625q0.15625 0.65625 0.671875 1.03125q0.515625 0.375 1.265625 0.375q0.75 0 1.40625 -0.375q0.65625 -0.390625 0.921875 -1.046875q0.28125 -0.671875 0.28125 -1.9375l0 -5.28125l1.671875 0l0 9.859375l-1.5 0zm7.5788574 -1.5l0.234375 1.484375q-0.703125 0.140625 -1.265625 0.140625q-0.90625 0 -1.40625 -0.28125q-0.5 -0.296875 -0.703125 -0.75q-0.203125 -0.46875 -0.203125 -1.984375l0 -5.65625l-1.234375 0l0 -1.3125l1.234375 0l0 -2.4375l1.65625 -1.0l0 3.4375l1.6875 0l0 1.3125l-1.6875 0l0 5.75q0 0.71875 0.078125 0.921875q0.09375 0.203125 0.296875 0.328125q0.203125 0.125 0.578125 0.125q0.265625 0 0.734375 -0.078125zm1.5426636 -10.1875l0 -1.90625l1.671875 0l0 1.90625l-1.671875 0zm0 11.6875l0 -9.859375l1.671875 0l0 9.859375l-1.671875 0zm3.5042114 -4.921875q0 -2.734375 1.53125 -4.0625q1.265625 -1.09375 3.09375 -1.09375q2.03125 0 3.3125 1.34375q1.296875 1.328125 1.296875 3.671875q0 1.90625 -0.578125 3.0q-0.5625 1.078125 -1.65625 1.6875q-1.078125 0.59375 -2.375 0.59375q-2.0625 0 -3.34375 -1.328125q-1.28125 -1.328125 -1.28125 -3.8125zm1.71875 0q0 1.890625 0.828125 2.828125q0.828125 0.9375 2.078125 0.9375q1.25 0 2.0625 -0.9375q0.828125 -0.953125 0.828125 -2.890625q0 -1.828125 -0.828125 -2.765625q-0.828125 -0.9375 -2.0625 -0.9375q-1.25 0 -2.078125 0.9375q-0.828125 0.9375 -0.828125 2.828125zm9.281982 4.921875l0 -9.859375l1.5 0l0 1.40625q1.09375 -1.625 3.140625 -1.625q0.890625 0 1.640625 0.328125q0.75 0.3125 1.109375 0.84375q0.375 0.515625 0.53125 1.21875q0.09375 0.46875 0.09375 1.625l0 6.0625l-1.671875 0l0 -6.0q0 -1.015625 -0.203125 -1.515625q-0.1875 -0.515625 -0.6875 -0.8125q-0.5 -0.296875 -1.171875 -0.296875q-1.0625 0 -1.84375 0.671875q-0.765625 0.671875 -0.765625 2.578125l0 5.375l-1.671875 0z" fill-rule="nonzero"></path><path fill="#000000" fill-opacity="0.0" d="m721.46454 581.2546l92.629944 0l0 48.0l-92.629944 0z" fill-rule="nonzero"></path><path fill="#000000" d="m732.02704 608.1746l0 -13.59375l9.171875 0l0 1.59375l-7.375 0l0 4.21875l6.375 0l0 1.609375l-6.375 0l0 6.171875l-1.796875 0zm11.052246 0l0 -13.59375l1.671875 0l0 13.59375l-1.671875 0zm10.629211 0l0 -1.453125q-1.140625 1.671875 -3.125 1.671875q-0.859375 0 -1.625 -0.328125q-0.75 -0.34375 -1.125 -0.84375q-0.359375 -0.5 -0.515625 -1.234375q-0.09375 -0.5 -0.09375 -1.5625l0 -6.109375l1.671875 0l0 5.46875q0 1.3125 0.09375 1.765625q0.15625 0.65625 0.671875 1.03125q0.515625 0.375 1.265625 0.375q0.75 0 1.40625 -0.375q0.65625 -0.390625 0.921875 -1.046875q0.28125 -0.671875 0.28125 -1.9375l0 -5.28125l1.671875 0l0 9.859375l-1.5 0zm2.8132324 0l3.59375 -5.125l-3.328125 -4.734375l2.09375 0l1.515625 2.3125q0.421875 0.65625 0.671875 1.109375q0.421875 -0.609375 0.765625 -1.09375l1.65625 -2.328125l1.984375 0l-3.390625 4.640625l3.65625 5.21875l-2.046875 0l-2.03125 -3.0625l-0.53125 -0.828125l-2.59375 3.890625l-2.015625 0z" fill-rule="nonzero"></path><path fill="#000000" fill-opacity="0.0" d="m721.46454 611.0026l190.51971 0l0 48.0l-190.51971 0z" fill-rule="nonzero"></path><path fill="#000000" d="m731.96454 637.9226l0 -13.59375l6.03125 0q1.8125 0 2.75 0.359375q0.953125 0.359375 1.515625 1.296875q0.5625 0.921875 0.5625 2.046875q0 1.453125 -0.9375 2.453125q-0.921875 0.984375 -2.890625 1.25q0.71875 0.34375 1.09375 0.671875q0.78125 0.734375 1.484375 1.8125l2.375 3.703125l-2.265625 0l-1.796875 -2.828125q-0.796875 -1.21875 -1.3125 -1.875q-0.5 -0.65625 -0.90625 -0.90625q-0.40625 -0.265625 -0.8125 -0.359375q-0.3125 -0.078125 -1.015625 -0.078125l-2.078125 0l0 6.046875l-1.796875 0zm1.796875 -7.59375l3.859375 0q1.234375 0 1.921875 -0.25q0.703125 -0.265625 1.0625 -0.828125q0.375 -0.5625 0.375 -1.21875q0 -0.96875 -0.703125 -1.578125q-0.703125 -0.625 -2.21875 -0.625l-4.296875 0l0 4.5zm18.176086 4.421875l1.71875 0.21875q-0.40625 1.5 -1.515625 2.34375q-1.09375 0.828125 -2.8125 0.828125q-2.15625 0 -3.421875 -1.328125q-1.265625 -1.328125 -1.265625 -3.734375q0 -2.484375 1.265625 -3.859375q1.28125 -1.375 3.328125 -1.375q1.984375 0 3.234375 1.34375q1.25 1.34375 1.25 3.796875q0 0.140625 -0.015625 0.4375l-7.34375 0q0.09375 1.625 0.921875 2.484375q0.828125 0.859375 2.0625 0.859375q0.90625 0 1.546875 -0.46875q0.65625 -0.484375 1.046875 -1.546875zm-5.484375 -2.703125l5.5 0q-0.109375 -1.234375 -0.625 -1.859375q-0.796875 -0.96875 -2.078125 -0.96875q-1.140625 0 -1.9375 0.78125q-0.78125 0.765625 -0.859375 2.046875zm15.547607 2.265625l1.640625 0.21875q-0.265625 1.6875 -1.375 2.65625q-1.109375 0.953125 -2.734375 0.953125q-2.015625 0 -3.25 -1.3125q-1.21875 -1.328125 -1.21875 -3.796875q0 -1.59375 0.515625 -2.78125q0.53125 -1.203125 1.609375 -1.796875q1.09375 -0.609375 2.359375 -0.609375q1.609375 0 2.625 0.8125q1.015625 0.8125 1.3125 2.3125l-1.625 0.25q-0.234375 -1.0 -0.828125 -1.5q-0.59375 -0.5 -1.421875 -0.5q-1.265625 0 -2.0625 0.90625q-0.78125 0.90625 -0.78125 2.859375q0 1.984375 0.765625 2.890625q0.765625 0.890625 1.984375 0.890625q0.984375 0 1.640625 -0.59375q0.65625 -0.609375 0.84375 -1.859375zm2.265625 -1.3125q0 -2.734375 1.53125 -4.0625q1.265625 -1.09375 3.09375 -1.09375q2.03125 0 3.3125 1.34375q1.296875 1.328125 1.296875 3.671875q0 1.90625 -0.578125 3.0q-0.5625 1.078125 -1.65625 1.6875q-1.078125 0.59375 -2.375 0.59375q-2.0625 0 -3.34375 -1.328125q-1.28125 -1.328125 -1.28125 -3.8125zm1.71875 0q0 1.890625 0.828125 2.828125q0.828125 0.9375 2.078125 0.9375q1.25 0 2.0625 -0.9375q0.828125 -0.953125 0.828125 -2.890625q0 -1.828125 -0.828125 -2.765625q-0.828125 -0.9375 -2.0625 -0.9375q-1.25 0 -2.078125 0.9375q-0.828125 0.9375 -0.828125 2.828125zm9.281982 4.921875l0 -9.859375l1.5 0l0 1.40625q1.09375 -1.625 3.140625 -1.625q0.890625 0 1.640625 0.328125q0.75 0.3125 1.109375 0.84375q0.375 0.515625 0.53125 1.21875q0.09375 0.46875 0.09375 1.625l0 6.0625l-1.671875 0l0 -6.0q0 -1.015625 -0.203125 -1.515625q-0.1875 -0.515625 -0.6875 -0.8125q-0.5 -0.296875 -1.171875 -0.296875q-1.0625 0 -1.84375 0.671875q-0.765625 0.671875 -0.765625 2.578125l0 5.375l-1.671875 0zm9.703796 -2.9375l1.65625 -0.265625q0.140625 1.0 0.765625 1.53125q0.640625 0.515625 1.78125 0.515625q1.15625 0 1.703125 -0.46875q0.5625 -0.46875 0.5625 -1.09375q0 -0.5625 -0.484375 -0.890625q-0.34375 -0.21875 -1.703125 -0.5625q-1.84375 -0.46875 -2.5625 -0.796875q-0.703125 -0.34375 -1.078125 -0.9375q-0.359375 -0.609375 -0.359375 -1.328125q0 -0.65625 0.296875 -1.21875q0.3125 -0.5625 0.828125 -0.9375q0.390625 -0.28125 1.0625 -0.484375q0.671875 -0.203125 1.4375 -0.203125q1.171875 0 2.046875 0.34375q0.875 0.328125 1.28125 0.90625q0.421875 0.5625 0.578125 1.515625l-1.625 0.21875q-0.109375 -0.75 -0.65625 -1.171875q-0.53125 -0.4375 -1.5 -0.4375q-1.15625 0 -1.640625 0.390625q-0.484375 0.375 -0.484375 0.875q0 0.328125 0.203125 0.59375q0.203125 0.265625 0.640625 0.4375q0.25 0.09375 1.46875 0.4375q1.765625 0.46875 2.46875 0.765625q0.703125 0.296875 1.09375 0.875q0.40625 0.578125 0.40625 1.4375q0 0.828125 -0.484375 1.578125q-0.484375 0.734375 -1.40625 1.140625q-0.921875 0.390625 -2.078125 0.390625q-1.921875 0 -2.9375 -0.796875q-1.0 -0.796875 -1.28125 -2.359375zm13.65625 1.4375l0.234375 1.484375q-0.703125 0.140625 -1.265625 0.140625q-0.90625 0 -1.40625 -0.28125q-0.5 -0.296875 -0.703125 -0.75q-0.203125 -0.46875 -0.203125 -1.984375l0 -5.65625l-1.234375 0l0 -1.3125l1.234375 0l0 -2.4375l1.65625 -1.0l0 3.4375l1.6875 0l0 1.3125l-1.6875 0l0 5.75q0 0.71875 0.078125 0.921875q0.09375 0.203125 0.296875 0.328125q0.203125 0.125 0.578125 0.125q0.265625 0 0.734375 -0.078125zm1.5114746 1.5l0 -9.859375l1.5 0l0 1.5q0.578125 -1.046875 1.0625 -1.375q0.484375 -0.34375 1.078125 -0.34375q0.84375 0 1.71875 0.546875l-0.578125 1.546875q-0.609375 -0.359375 -1.234375 -0.359375q-0.546875 0 -0.984375 0.328125q-0.421875 0.328125 -0.609375 0.90625q-0.28125 0.890625 -0.28125 1.953125l0 5.15625l-1.671875 0zm12.6813965 0l0 -1.453125q-1.140625 1.671875 -3.125 1.671875q-0.859375 0 -1.625 -0.328125q-0.75 -0.34375 -1.125 -0.84375q-0.359375 -0.5 -0.515625 -1.234375q-0.09375 -0.5 -0.09375 -1.5625l0 -6.109375l1.671875 0l0 5.46875q0 1.3125 0.09375 1.765625q0.15625 0.65625 0.671875 1.03125q0.515625 0.375 1.265625 0.375q0.75 0 1.40625 -0.375q0.65625 -0.390625 0.921875 -1.046875q0.28125 -0.671875 0.28125 -1.9375l0 -5.28125l1.671875 0l0 9.859375l-1.5 0zm10.360107 -3.609375l1.640625 0.21875q-0.265625 1.6875 -1.375 2.65625q-1.109375 0.953125 -2.734375 0.953125q-2.015625 0 -3.25 -1.3125q-1.21875 -1.328125 -1.21875 -3.796875q0 -1.59375 0.515625 -2.78125q0.53125 -1.203125 1.609375 -1.796875q1.09375 -0.609375 2.359375 -0.609375q1.609375 0 2.625 0.8125q1.015625 0.8125 1.3125 2.3125l-1.625 0.25q-0.234375 -1.0 -0.828125 -1.5q-0.59375 -0.5 -1.421875 -0.5q-1.265625 0 -2.0625 0.90625q-0.78125 0.90625 -0.78125 2.859375q0 1.984375 0.765625 2.890625q0.765625 0.890625 1.984375 0.890625q0.984375 0 1.640625 -0.59375q0.65625 -0.609375 0.84375 -1.859375zm6.546875 2.109375l0.234375 1.484375q-0.703125 0.140625 -1.265625 0.140625q-0.90625 0 -1.40625 -0.28125q-0.5 -0.296875 -0.703125 -0.75q-0.203125 -0.46875 -0.203125 -1.984375l0 -5.65625l-1.234375 0l0 -1.3125l1.234375 0l0 -2.4375l1.65625 -1.0l0 3.4375l1.6875 0l0 1.3125l-1.6875 0l0 5.75q0 0.71875 0.078125 0.921875q0.09375 0.203125 0.296875 0.328125q0.203125 0.125 0.578125 0.125q0.265625 0 0.734375 -0.078125zm8.277039 -1.671875l1.71875 0.21875q-0.40625 1.5 -1.515625 2.34375q-1.09375 0.828125 -2.8125 0.828125q-2.15625 0 -3.421875 -1.328125q-1.265625 -1.328125 -1.265625 -3.734375q0 -2.484375 1.265625 -3.859375q1.28125 -1.375 3.328125 -1.375q1.984375 0 3.234375 1.34375q1.25 1.34375 1.25 3.796875q0 0.140625 -0.015625 0.4375l-7.34375 0q0.09375 1.625 0.921875 2.484375q0.828125 0.859375 2.0625 0.859375q0.90625 0 1.546875 -0.46875q0.65625 -0.484375 1.046875 -1.546875zm-5.484375 -2.703125l5.5 0q-0.109375 -1.234375 -0.625 -1.859375q-0.796875 -0.96875 -2.078125 -0.96875q-1.140625 0 -1.9375 0.78125q-0.78125 0.765625 -0.859375 2.046875zm15.500732 5.875l0 -1.25q-0.9375 1.46875 -2.75 1.46875q-1.171875 0 -2.171875 -0.640625q-0.984375 -0.65625 -1.53125 -1.8125q-0.53125 -1.171875 -0.53125 -2.6875q0 -1.46875 0.484375 -2.671875q0.5 -1.203125 1.46875 -1.84375q0.984375 -0.640625 2.203125 -0.640625q0.890625 0 1.578125 0.375q0.703125 0.375 1.140625 0.984375l0 -4.875l1.65625 0l0 13.59375l-1.546875 0zm-5.28125 -4.921875q0 1.890625 0.796875 2.828125q0.8125 0.9375 1.890625 0.9375q1.09375 0 1.859375 -0.890625q0.765625 -0.890625 0.765625 -2.734375q0 -2.015625 -0.78125 -2.953125q-0.78125 -0.953125 -1.921875 -0.953125q-1.109375 0 -1.859375 0.90625q-0.75 0.90625 -0.75 2.859375zm14.762146 4.921875l0 -13.59375l9.171875 0l0 1.59375l-7.375 0l0 4.21875l6.375 0l0 1.609375l-6.375 0l0 6.171875l-1.796875 0zm11.052246 0l0 -13.59375l1.671875 0l0 13.59375l-1.671875 0zm10.62915 0l0 -1.453125q-1.140625 1.671875 -3.125 1.671875q-0.859375 0 -1.625 -0.328125q-0.75 -0.34375 -1.125 -0.84375q-0.359375 -0.5 -0.515625 -1.234375q-0.09375 -0.5 -0.09375 -1.5625l0 -6.109375l1.671875 0l0 5.46875q0 1.3125 0.09375 1.765625q0.15625 0.65625 0.671875 1.03125q0.515625 0.375 1.265625 0.375q0.75 0 1.40625 -0.375q0.65625 -0.390625 0.921875 -1.046875q0.28125 -0.671875 0.28125 -1.9375l0 -5.28125l1.671875 0l0 9.859375l-1.5 0zm2.8132324 0l3.59375 -5.125l-3.328125 -4.734375l2.09375 0l1.515625 2.3125q0.421875 0.65625 0.671875 1.109375q0.421875 -0.609375 0.765625 -1.09375l1.65625 -2.328125l1.984375 0l-3.390625 4.640625l3.65625 5.21875l-2.046875 0l-2.03125 -3.0625l-0.53125 -0.828125l-2.59375 3.890625l-2.015625 0z" fill-rule="nonzero"></path><path fill="#000000" fill-opacity="0.0" d="m66.27821 523.6365l850.23627 0" fill-rule="nonzero"></path><path stroke="#000000" stroke-width="2.0" stroke-linejoin="round" stroke-linecap="butt" d="m66.27821 523.6365l850.23627 0" fill-rule="nonzero"></path><path fill="#000000" fill-opacity="0.0" d="m466.58267 536.2651l61.0394 0l0 48.0l-61.0394 0z" fill-rule="nonzero"></path><path fill="#000000" d="m481.94357 563.1851l3.59375 -5.125l-3.328125 -4.734375l2.09375 0l1.515625 2.3125q0.421875 0.65625 0.671875 1.109375q0.421875 -0.609375 0.765625 -1.09375l1.65625 -2.328125l1.984375 0l-3.390625 4.640625l3.65625 5.21875l-2.046875 0l-2.03125 -3.0625l-0.53125 -0.828125l-2.59375 3.890625l-2.015625 0zm19.21875 -8.0l-8.96875 0l0 -1.5625l8.96875 0l0 1.5625zm0 4.125l-8.96875 0l0 -1.546875l8.96875 0l0 1.546875zm1.6449585 -2.828125q0 -2.421875 0.5 -3.890625q0.5 -1.46875 1.46875 -2.265625q0.984375 -0.796875 2.46875 -0.796875q1.09375 0 1.921875 0.4375q0.828125 0.4375 1.359375 1.28125q0.546875 0.828125 0.84375 2.015625q0.3125 1.1875 0.3125 3.21875q0 2.390625 -0.5 3.859375q-0.484375 1.46875 -1.46875 2.28125q-0.96875 0.796875 -2.46875 0.796875q-1.96875 0 -3.078125 -1.40625q-1.359375 -1.703125 -1.359375 -5.53125zm1.71875 0q0 3.34375 0.78125 4.453125q0.796875 1.109375 1.9375 1.109375q1.15625 0 1.9375 -1.109375q0.78125 -1.125 0.78125 -4.453125q0 -3.359375 -0.78125 -4.46875q-0.78125 -1.109375 -1.953125 -1.109375q-1.15625 0 -1.828125 0.984375q-0.875 1.234375 -0.875 4.59375z" fill-rule="nonzero"></path><path fill="#000000" fill-opacity="0.0" d="m36.24147 530.21783l61.039368 0l0 48.0l-61.039368 0z" fill-rule="nonzero"></path><path fill="#000000" d="m51.60238 557.1378l3.59375 -5.125l-3.328125 -4.734375l2.09375 0l1.515625 2.3125q0.421875 0.65625 0.671875 1.109375q0.421875 -0.609375 0.765625 -1.09375l1.65625 -2.328125l1.984375 0l-3.390625 4.640625l3.65625 5.21875l-2.046875 0l-2.03125 -3.0625l-0.53125 -0.828125l-2.59375 3.890625l-2.015625 0zm19.21875 -8.0l-8.96875 0l0 -1.5625l8.96875 0l0 1.5625zm0 4.125l-8.96875 0l0 -1.546875l8.96875 0l0 1.546875zm7.9418335 3.875l-1.671875 0l0 -10.640625q-0.59375 0.578125 -1.578125 1.15625q-0.984375 0.5625 -1.765625 0.859375l0 -1.625q1.40625 -0.65625 2.453125 -1.59375q1.046875 -0.9375 1.484375 -1.8125l1.078125 0l0 13.65625z" fill-rule="nonzero"></path></g></svg>

